<svg width="113" height="74" viewBox="0 0 113 74" fill="none" xmlns="http://www.w3.org/2000/svg">
<rect x="1" y="1" width="111" height="72" rx="2" stroke="url(#paint0_linear_5571_168394)" stroke-width="1.53846" stroke-linecap="round" stroke-linejoin="round"/>
<g clip-path="url(#clip0_5571_168394)">
<path d="M48.75 48C48.75 50.188 49.6192 52.2865 51.1664 53.8336C52.7135 55.3808 54.812 56.25 57 56.25C59.188 56.25 61.2865 55.3808 62.8336 53.8336C64.3808 52.2865 65.25 50.188 65.25 48C65.25 45.812 64.3808 43.7135 62.8336 42.1664C61.2865 40.6192 59.188 39.75 57 39.75C54.812 39.75 52.7135 40.6192 51.1664 42.1664C49.6192 43.7135 48.75 45.812 48.75 48Z" stroke="url(#paint1_linear_5571_168394)" stroke-width="1.5" stroke-linecap="round" stroke-linejoin="round"/>
<path d="M57 56.2501H45.75C44.9544 56.2501 44.1913 56.5661 43.6287 57.1288C43.0661 57.6914 42.75 58.4544 42.75 59.2501C42.75 60.0457 43.0661 60.8088 43.6287 61.3714C44.1913 61.934 44.9544 62.2501 45.75 62.2501H65.25M60.182 44.8181L61.243 43.7571M53.818 51.1821L52.757 52.2431M60.182 51.1821L61.243 52.2431M53.818 44.8181L52.757 43.7571M54.75 48.0001C54.75 48.5968 54.9871 49.1691 55.409 49.5911C55.831 50.013 56.4033 50.2501 57 50.2501C57.5967 50.2501 58.169 50.013 58.591 49.5911C59.0129 49.1691 59.25 48.5968 59.25 48.0001C59.25 47.4033 59.0129 46.831 58.591 46.4091C58.169 45.9871 57.5967 45.7501 57 45.7501C56.4033 45.7501 55.831 45.9871 55.409 46.4091C54.9871 46.831 54.75 47.4033 54.75 48.0001Z" stroke="url(#paint2_linear_5571_168394)" stroke-width="1.5" stroke-linecap="round" stroke-linejoin="round"/>
</g>
<path d="M50.6667 22.0001C51.0203 22.0001 51.3594 22.1406 51.6095 22.3906C51.8595 22.6407 52 22.9798 52 23.3334C52 22.9798 52.1405 22.6407 52.3905 22.3906C52.6406 22.1406 52.9797 22.0001 53.3333 22.0001C52.9797 22.0001 52.6406 21.8596 52.3905 21.6096C52.1405 21.3595 52 21.0204 52 20.6667C52 21.0204 51.8595 21.3595 51.6095 21.6096C51.3594 21.8596 51.0203 22.0001 50.6667 22.0001ZM50.6667 14.0001C51.0203 14.0001 51.3594 14.1406 51.6095 14.3906C51.8595 14.6407 52 14.9798 52 15.3334C52 14.9798 52.1405 14.6407 52.3905 14.3906C52.6406 14.1406 52.9797 14.0001 53.3333 14.0001C52.9797 14.0001 52.6406 13.8596 52.3905 13.6096C52.1405 13.3595 52 13.0204 52 12.6667C52 13.0204 51.8595 13.3595 51.6095 13.6096C51.3594 13.8596 51.0203 14.0001 50.6667 14.0001ZM46 22.0001C46 20.9392 46.4214 19.9218 47.1716 19.1717C47.9217 18.4215 48.9391 18.0001 50 18.0001C48.9391 18.0001 47.9217 17.5787 47.1716 16.8285C46.4214 16.0784 46 15.0609 46 14.0001C46 15.0609 45.5786 16.0784 44.8284 16.8285C44.0783 17.5787 43.0609 18.0001 42 18.0001C43.0609 18.0001 44.0783 18.4215 44.8284 19.1717C45.5786 19.9218 46 20.9392 46 22.0001Z" stroke="#9B51E0" stroke-width="1.33333" stroke-linecap="round" stroke-linejoin="round"/>
<path d="M38.6529 25.9463L22.3412 29.3551C21.0543 29.624 20.229 30.8853 20.498 32.1723L23.9067 48.4839C24.1757 49.7709 25.437 50.5961 26.7239 50.3272L43.0356 46.9184C44.3225 46.6494 45.1478 45.3881 44.8788 44.1012L41.4701 27.7895C41.2011 26.5026 39.9398 25.6773 38.6529 25.9463Z" stroke="url(#paint3_linear_5571_168394)" stroke-width="1.3" stroke-linecap="round" stroke-linejoin="round"/>
<path d="M24.6715 28.8681L29.0542 49.8402M21.1067 35.0851L25.7671 34.1111M22.2024 40.3281L43.1745 35.9454M23.298 45.5711L27.9585 44.5972M36.3226 26.4333L40.7053 47.4053M37.4183 31.6763L42.0788 30.7023M39.6097 42.1623L44.2701 41.1884" stroke="url(#paint4_linear_5571_168394)" stroke-width="1.3" stroke-linecap="round" stroke-linejoin="round"/>
<path fill-rule="evenodd" clip-rule="evenodd" d="M80.8259 60.2877L87.8259 53.2847C88.3554 52.7556 88.653 52.0378 88.6533 51.2893C88.6536 50.5407 88.3565 49.8227 87.8274 49.2932C87.2983 48.7637 86.5805 48.4661 85.8319 48.4658C85.0834 48.4655 84.3654 48.7626 83.8359 49.2917L76.8289 56.2887C76.5662 56.5512 76.3578 56.8628 76.2156 57.2058C76.0734 57.5487 76.0001 57.9164 76 58.2877C75.9999 58.659 76.0729 59.0267 76.2148 59.3697C76.3568 59.7128 76.5649 60.0246 76.8274 60.2872C77.0898 60.5499 77.4014 60.7583 77.7444 60.9005C78.0874 61.0427 78.455 61.116 78.8263 61.1161C79.1976 61.1162 79.5653 61.0432 79.9084 60.9013C80.2515 60.7593 80.5632 60.5502 80.8259 60.2877ZM83.8269 51.2877L85.8269 53.2877L86.8269 52.2877C86.9582 52.1564 87.0624 52.0005 87.1334 51.8289C87.2045 51.6574 87.2411 51.4735 87.2411 51.2877C87.2411 51.102 87.2045 50.9181 87.1334 50.7465C87.0624 50.575 86.9582 50.4191 86.8269 50.2877C86.6955 50.1564 86.5396 50.0522 86.3681 49.9812C86.1965 49.9101 86.0126 49.8735 85.8269 49.8735C85.6411 49.8735 85.4573 49.9101 85.2857 49.9812C85.1141 50.0522 84.9582 50.1564 84.8269 50.2877L83.8269 51.2877Z" fill="url(#paint5_linear_5571_168394)"/>
<path d="M79.5856 45.1852C79.6516 44.9382 80.0016 44.9382 80.0676 45.1852L80.4266 46.5132C80.438 46.5554 80.4603 46.5938 80.4911 46.6247C80.522 46.6556 80.5605 46.6778 80.6026 46.6892L81.9306 47.0472C82.1776 47.1132 82.1776 47.4633 81.9306 47.5293L80.6016 47.8882C80.5595 47.8997 80.521 47.9219 80.4901 47.9528C80.4593 47.9837 80.437 48.0221 80.4256 48.0642L80.0666 49.3912C80.0006 49.6382 79.6506 49.6382 79.5846 49.3912L79.2266 48.0633C79.2152 48.0211 79.1929 47.9827 79.1621 47.9518C79.1312 47.9209 79.0928 47.8987 79.0506 47.8872L77.7216 47.5293C77.4756 47.4633 77.4756 47.1132 77.7216 47.0472L79.0516 46.6883C79.0938 46.6768 79.1322 46.6546 79.1631 46.6237C79.1939 46.5928 79.2162 46.5544 79.2276 46.5122L79.5856 45.1852ZM89.5856 44.1852C89.6516 43.9383 90.0016 43.9383 90.0676 44.1852L90.4256 45.5132C90.437 45.5554 90.4593 45.5938 90.4901 45.6247C90.521 45.6556 90.5595 45.6778 90.6016 45.6892L91.9296 46.0472C92.1766 46.1132 92.1766 46.4633 91.9296 46.5293L90.6016 46.8872C90.5595 46.8987 90.521 46.9209 90.4901 46.9518C90.4593 46.9827 90.437 47.0211 90.4256 47.0633L90.0676 48.3912C90.0016 48.6382 89.6516 48.6382 89.5856 48.3912L89.2266 47.0633C89.2151 47.021 89.1927 46.9825 89.1616 46.9516C89.1306 46.9207 89.0919 46.8985 89.0496 46.8872L87.7216 46.5293C87.4756 46.4633 87.4756 46.1132 87.7216 46.0472L89.0496 45.6892C89.0919 45.678 89.1306 45.6558 89.1616 45.6249C89.1927 45.594 89.2151 45.5555 89.2266 45.5132L89.5856 44.1852ZM90.5856 53.1853C90.6516 52.9383 91.0016 52.9383 91.0676 53.1853L91.4256 54.5133C91.437 54.5554 91.4593 54.5938 91.4901 54.6247C91.521 54.6556 91.5595 54.6778 91.6016 54.6892L92.9296 55.0472C93.1766 55.1132 93.1766 55.4633 92.9296 55.5293L91.6016 55.8872C91.5595 55.8987 91.521 55.9209 91.4901 55.9518C91.4593 55.9827 91.437 56.0211 91.4256 56.0632L91.0676 57.3913C91.0016 57.6383 90.6516 57.6383 90.5856 57.3913L90.2276 56.0632C90.2161 56.021 90.1937 55.9825 90.1626 55.9516C90.1316 55.9207 90.0929 55.8985 90.0506 55.8872L88.7226 55.5293C88.4766 55.4633 88.4766 55.1132 88.7226 55.0472L90.0506 54.6892C90.0929 54.678 90.1316 54.6558 90.1626 54.6249C90.1937 54.594 90.2161 54.5555 90.2276 54.5133L90.5856 53.1853Z" fill="url(#paint6_linear_5571_168394)"/>
<g clip-path="url(#clip1_5571_168394)">
<path fill-rule="evenodd" clip-rule="evenodd" d="M77.6593 27.2983C77.7218 26.0536 77.6963 24.8104 77.6981 23.576C77.7162 22.9598 77.6822 22.3431 77.5962 21.7326C77.5731 21.5892 77.5128 21.4543 77.4214 21.3413C77.3299 21.2284 77.2105 21.1414 77.075 21.089C76.7705 20.9981 76.445 20.9979 76.1411 21.0851C75.6853 21.2392 75.2419 21.4242 74.8109 21.6401C73.9884 21.9623 73.1656 22.2814 72.3375 22.5286C71.7925 22.6956 71.2341 22.8155 70.6685 22.8869C69.679 23.011 68.6796 23.0362 67.6851 22.9619C66.7016 22.906 65.733 22.696 64.8147 22.3396C64.4389 22.2168 64.084 21.986 63.7281 21.798C62.8702 21.3026 62.0464 20.7465 61.1888 20.2942C60.8258 20.0881 60.0746 20.9341 60.0662 20.96C59.8805 21.9349 59.7695 22.9184 59.7331 23.9106C59.66 25.3239 59.6915 26.8559 59.7337 28.3069C59.7516 29.3457 59.9342 30.3751 60.2748 31.3566C60.6332 32.3098 61.1636 33.189 61.8397 33.9506C62.3565 34.5172 62.9216 35.0378 63.5286 35.5064C64.433 36.2036 65.3809 36.8346 66.3724 37.3995C66.7575 37.6258 67.2295 37.9808 67.6979 38.2199C67.9496 38.3452 68.2135 38.4314 68.4897 38.4786C68.9631 38.5499 69.4469 38.4953 69.8926 38.3203C70.6721 37.9583 71.4027 37.4956 72.0643 36.9459C73.5215 35.8891 74.8287 34.6396 75.9501 33.2314C76.7023 32.2098 77.2066 31.0271 77.4231 29.777C77.5557 28.9568 77.6346 28.1288 77.6593 27.2983ZM74.7196 32.4277C73.6876 33.7216 72.4858 34.8703 71.1467 35.8429C70.6664 36.2526 70.1449 36.6114 69.5906 36.9135C69.3372 37.0746 69.0402 37.1539 68.7413 37.138C68.5338 37.1041 68.3327 37.0384 68.1452 36.9432C67.7416 36.7253 67.355 36.4556 67.0263 36.2764C66.2511 35.8429 65.5 35.3677 64.7764 34.8528C64.0482 34.3584 63.3724 33.791 62.7594 33.1596C62.1377 32.5111 61.645 31.7505 61.3074 30.9181C60.9784 30.0682 60.7868 29.1714 60.7398 28.2613C60.6712 26.8031 60.5888 25.339 60.6226 23.9144C60.6357 22.9808 60.7287 22.05 60.9006 21.1323C61.7225 21.6017 62.5174 22.1626 63.2846 22.6284C63.6798 22.8675 64.0895 23.0784 64.5136 23.261C65.5165 23.6991 66.5838 23.9661 67.6751 24.0502C68.7441 24.1585 69.8211 24.159 70.8914 24.0527C71.5167 23.9892 72.1356 23.8743 72.742 23.7093C73.6202 23.4799 74.4866 23.1592 75.3488 22.8514C75.5768 22.7681 75.9035 22.6024 76.2304 22.4797C76.2717 22.8508 76.339 23.217 76.4322 23.5783C76.3912 24.8013 76.3778 26.0319 76.307 27.258C76.264 28.0539 76.1778 28.8447 76.0482 29.6304C75.8253 30.6524 75.3716 31.6098 74.7196 32.4277Z" fill="url(#paint7_linear_5571_168394)"/>
<path fill-rule="evenodd" clip-rule="evenodd" d="M69.565 31.3603C69.2092 31.2117 68.8315 31.1222 68.4468 31.0953C68.0594 31.0519 67.6685 31.0848 67.2945 31.1935C66.4321 31.4539 65.6951 32.0191 65.2224 32.7855C65.1888 32.8234 65.1632 32.8677 65.1469 32.9157C65.1306 32.9636 65.124 33.0144 65.1275 33.0649C65.131 33.1154 65.1445 33.1648 65.1673 33.21C65.1901 33.2553 65.2216 33.2956 65.2601 33.3285C65.3382 33.393 65.4381 33.425 65.5392 33.418C65.6402 33.411 65.7347 33.3654 65.8031 33.2908C66.3015 32.8742 66.9207 32.6289 67.5693 32.5914C67.8436 32.5711 68.1171 32.5696 68.3897 32.5869C69.3226 32.6218 70.2207 32.9504 70.9558 33.5258C71.0065 33.5772 71.069 33.6154 71.1379 33.637C71.2068 33.6586 71.2799 33.663 71.3508 33.6498C71.4218 33.6366 71.4885 33.6063 71.545 33.5614C71.6015 33.5165 71.6461 33.4584 71.675 33.3922C71.71 33.3126 71.7205 33.2244 71.705 33.1388C71.6895 33.0533 71.6488 32.9743 71.5881 32.912C71.0591 32.2295 70.3624 31.6955 69.5659 31.362M73.5946 26.947C73.4025 27.0858 73.1838 27.1834 72.9521 27.2336C72.7205 27.2838 72.4809 27.2855 72.2486 27.2386L71.882 27.2192C71.54 27.1993 71.2146 27.0671 70.9559 26.8449C70.9283 26.802 70.8927 26.7649 70.8508 26.7358C70.809 26.7067 70.7618 26.6862 70.712 26.6753C70.6622 26.6644 70.6108 26.6635 70.5606 26.6725C70.5105 26.6815 70.4626 26.7003 70.4197 26.7278C70.3768 26.7553 70.3397 26.791 70.3106 26.8328C70.2815 26.8747 70.261 26.9218 70.2501 26.9716C70.2392 27.0214 70.2383 27.0728 70.2473 27.123C70.2563 27.1732 70.2751 27.2211 70.3026 27.264C70.393 27.5417 70.5384 27.7985 70.7299 28.019C70.9215 28.2395 71.1554 28.4193 71.4178 28.5477C71.6599 28.667 71.925 28.7293 72.1932 28.7294C72.4511 28.7391 72.7099 28.6975 72.9513 28.6042C73.4786 28.4146 73.9287 28.0566 74.2322 27.5856C74.2723 27.5433 74.3035 27.4933 74.324 27.4387C74.3446 27.3841 74.3539 27.326 74.3515 27.2677C74.3492 27.2095 74.3352 27.1523 74.3103 27.0995C74.2855 27.0467 74.2503 26.9995 74.2069 26.9606C74.1254 26.8814 74.017 26.836 73.9034 26.8335C73.7899 26.831 73.6795 26.8715 73.5946 26.947ZM67.7008 26.9172C67.6483 26.8147 67.5574 26.737 67.4479 26.7013C67.3384 26.6655 67.2192 26.6745 67.1163 26.7262C66.4284 26.9002 65.7043 26.8773 65.0266 26.6602L64.4564 26.4738C63.9605 26.3377 63.4937 26.1123 63.0788 25.8086C63.0471 25.7611 63.0055 25.7211 62.9568 25.6913C62.9081 25.6615 62.8536 25.6425 62.7969 25.6358C62.7402 25.6291 62.6827 25.6347 62.6284 25.6523C62.5741 25.6698 62.5243 25.699 62.4823 25.7376C62.4403 25.7763 62.4072 25.8236 62.3853 25.8763C62.3633 25.929 62.353 25.9858 62.3551 26.0428C62.3572 26.0999 62.3716 26.1558 62.3973 26.2067C62.4231 26.2577 62.4595 26.3024 62.5042 26.338C62.8345 26.9163 63.3008 27.4029 63.8626 27.76C64.1295 27.897 64.4103 27.9887 64.7049 28.0352C64.9801 28.0974 65.2625 28.1221 65.5444 28.1087C66.2096 28.0423 66.8507 27.8239 67.4182 27.4703C67.4743 27.4544 67.5265 27.4271 67.5716 27.3901C67.6166 27.353 67.6535 27.3071 67.6799 27.2551C67.7063 27.2031 67.7217 27.1462 67.7251 27.088C67.7284 27.0298 67.721 26.9719 67.7008 26.9172ZM94.2912 15.913C94.2926 15.6434 94.2141 15.3794 94.0655 15.1544C93.9169 14.9295 93.7049 14.7536 93.4564 14.6491C92.7558 14.4583 92.0292 14.3806 91.304 14.4191C90.6701 14.3517 90.0462 14.2104 89.4451 13.9981C88.8261 13.7857 88.2241 13.5267 87.6443 13.2233C87.0412 12.8803 86.4683 12.4867 85.9318 12.0469C85.1091 11.3658 84.3318 10.6317 83.6048 9.84938C83.1933 9.31035 82.6745 8.86245 82.0811 8.53395C81.8944 8.45626 81.694 8.41645 81.4918 8.41684C81.2895 8.41722 81.0893 8.45779 80.9028 8.53619C80.5698 8.69851 80.2945 8.95894 80.114 9.28243C79.7675 9.81608 79.4823 10.5132 79.2888 10.8817L78.3589 12.7178L75.5085 18.3641C75.4736 18.4324 75.4602 18.5096 75.4698 18.5857C75.4795 18.6618 75.5119 18.7332 75.5627 18.7906C75.597 18.8282 75.638 18.8591 75.6835 18.8817C75.7289 18.9046 75.7783 18.9183 75.829 18.9218C75.8796 18.9254 75.9305 18.9188 75.9786 18.9025C76.0267 18.8861 76.071 18.8603 76.109 18.8266C76.147 18.7929 76.1779 18.752 76.1999 18.7062L79.2641 13.2001L80.259 11.4282C80.417 11.1643 80.6728 10.601 80.9722 10.1237C81.0675 9.96646 81.1875 9.83353 81.332 9.72489C81.5256 9.65907 81.6832 9.83965 81.8646 9.89893C82.1437 10.1393 82.3972 10.4038 82.6251 10.6925C83.2347 11.4224 83.8851 12.1139 84.5762 12.7672C85.2773 13.4309 86.0499 14.0161 86.8798 14.5096C87.527 14.8788 88.2007 15.1903 88.9009 15.4439C89.6096 15.7101 90.3494 15.8844 91.1024 15.9625C91.4777 15.9991 92.0247 15.9053 92.5393 15.9587C92.656 15.9968 92.8065 15.9313 92.8244 16.0519C92.8357 16.7196 92.6603 17.3795 92.3179 17.9532C91.7847 19.0583 90.9932 20.1637 90.5146 20.9698C90.0361 21.7758 89.3322 23.1838 88.5738 24.2713C88.1434 24.9135 87.6048 25.4762 86.982 25.9342C86.545 26.2281 86.072 26.4645 85.5746 26.6375C84.7852 26.8973 83.9737 27.0844 83.1502 27.1964C82.5888 27.2932 82.0239 27.3524 81.4555 27.3742C81.1296 27.3913 80.8035 27.3433 80.4963 27.2328C80.444 27.2078 80.3873 27.1933 80.3294 27.1904C80.2715 27.1875 80.2136 27.1961 80.1591 27.2159C80.1046 27.2356 80.0546 27.2659 80.0119 27.3052C79.9693 27.3445 79.9349 27.3919 79.9108 27.4446C79.8837 27.4964 79.8677 27.5532 79.8637 27.6115C79.8597 27.6698 79.8679 27.7283 79.8877 27.7832C79.9074 27.8382 79.9384 27.8885 79.9786 27.9309C80.0188 27.9733 80.0673 28.007 80.1212 28.0297C80.5473 28.2094 81.0055 28.3006 81.4679 28.2976C82.079 28.2974 82.6865 28.2569 83.2905 28.176C84.1869 28.0648 85.0715 27.8728 85.9334 27.6024C86.529 27.417 87.0983 27.1541 87.6262 26.8202C88.372 26.3121 89.0253 25.68 89.5578 24.9514C90.3534 23.8775 91.0324 22.6335 91.6539 21.6576C92.4987 20.4974 93.2426 19.2756 93.8858 17.9922C94.1829 17.3409 94.3209 16.6282 94.2912 15.913Z" fill="url(#paint8_linear_5571_168394)"/>
<path fill-rule="evenodd" clip-rule="evenodd" d="M79.8603 15.5059C80.2307 15.6081 80.5729 15.7935 80.8607 16.048L81.1426 16.3266L81.5776 16.7555C81.975 17.1636 82.3071 17.6307 82.5619 18.1414C82.5978 18.2519 82.675 18.3442 82.7774 18.399C82.8798 18.4539 82.9994 18.467 83.1112 18.4357C83.2233 18.3978 83.3167 18.3184 83.3722 18.2139C83.4277 18.1093 83.4411 17.9875 83.4097 17.8734C83.3344 17.2794 83.1592 16.7023 82.8917 16.1666C82.7624 15.9278 82.6027 15.7069 82.4166 15.5093C82.2234 15.2965 81.9944 15.1192 81.74 14.9856C81.1548 14.6887 80.4869 14.5967 79.8432 14.7244C79.7927 14.7227 79.7424 14.731 79.6952 14.7489C79.6479 14.7668 79.6047 14.7939 79.568 14.8286C79.5314 14.8633 79.5019 14.9049 79.4814 14.9511C79.461 14.9972 79.4498 15.047 79.4487 15.0975C79.4469 15.1519 79.4563 15.2061 79.4764 15.2567C79.4964 15.3073 79.5267 15.3532 79.5654 15.3915C79.604 15.4299 79.6502 15.4598 79.7009 15.4795C79.7516 15.4992 79.8059 15.5082 79.8603 15.5059ZM86.2906 20.1358C86.6577 19.9545 87.0412 19.8212 87.4411 19.7358C87.6287 19.6793 87.8201 19.6364 88.0138 19.6073C88.1564 19.5808 88.3009 19.5656 88.4459 19.5621C88.7571 19.5447 89.0683 19.6019 89.3536 19.7296C89.4293 19.7739 89.5168 19.7935 89.6041 19.7858C89.6915 19.7781 89.7742 19.7434 89.841 19.6866C89.9132 19.5923 89.9452 19.4732 89.93 19.3554C89.9147 19.2375 89.8535 19.1305 89.7596 19.0576C89.3145 18.5523 88.6901 18.2403 88.0187 18.1876C87.8465 18.1762 87.6755 18.1873 87.5059 18.2208C87.2656 18.2768 87.0341 18.3652 86.8176 18.4835C86.3795 18.7621 86.0044 19.1286 85.7172 19.5597C85.6704 19.5918 85.6311 19.6336 85.6018 19.6822C85.5726 19.7308 85.5542 19.7852 85.5478 19.8415C85.5414 19.8979 85.5473 19.955 85.5649 20.0089C85.5826 20.0629 85.6116 20.1124 85.6501 20.1541C85.6886 20.1958 85.7356 20.2287 85.7879 20.2506C85.8403 20.2725 85.8967 20.2829 85.9534 20.2811C86.0101 20.2792 86.0658 20.2652 86.1166 20.24C86.1674 20.2147 86.2122 20.1788 86.2479 20.1347L86.2906 20.1358ZM82.378 24.2876C83.1309 24.4453 83.9102 24.4238 84.6532 24.2249C84.7104 24.2203 84.766 24.2042 84.8167 24.1774C84.8674 24.1507 84.9121 24.1139 84.9481 24.0693C84.9841 24.0248 85.0107 23.9733 85.0263 23.9181C85.0418 23.863 85.0459 23.8052 85.0384 23.7484C85.0342 23.6896 85.0182 23.6323 84.9913 23.5799C84.9643 23.5276 84.9271 23.4812 84.8817 23.4436C84.8364 23.406 84.7839 23.3779 84.7274 23.3612C84.671 23.3444 84.6117 23.3392 84.5532 23.346C83.7012 23.3326 82.8732 23.0621 82.1777 22.5698C81.9699 22.4479 81.7686 22.3151 81.5748 22.172C81.0569 21.8228 80.5895 21.4042 80.1856 20.9277C80.1505 20.8585 80.0958 20.8012 80.0283 20.7629C79.9608 20.7246 79.8835 20.7069 79.8061 20.7122C79.7287 20.7175 79.6545 20.7455 79.5929 20.7926C79.5312 20.8397 79.4848 20.904 79.4594 20.9773C79.4438 21.0257 79.438 21.0768 79.4424 21.1275C79.4467 21.1782 79.4612 21.2275 79.4849 21.2725C79.7301 21.9837 80.1113 22.639 80.6048 23.2047C80.8404 23.4495 81.1119 23.6587 81.4074 23.8255C81.7061 24.0264 82.0342 24.181 82.3772 24.2858" fill="url(#paint9_linear_5571_168394)"/>
</g>
<defs>
<linearGradient id="paint0_linear_5571_168394" x1="56.5" y1="1" x2="56.5" y2="73" gradientUnits="userSpaceOnUse">
<stop offset="0.32" stop-color="#9B51E0"/>
<stop offset="1" stop-color="#6161E4"/>
</linearGradient>
<linearGradient id="paint1_linear_5571_168394" x1="57" y1="39.75" x2="57" y2="56.25" gradientUnits="userSpaceOnUse">
<stop offset="0.32" stop-color="#9B51E0"/>
<stop offset="1" stop-color="#6161E4"/>
</linearGradient>
<linearGradient id="paint2_linear_5571_168394" x1="54" y1="43.7571" x2="54" y2="62.2501" gradientUnits="userSpaceOnUse">
<stop offset="0.32" stop-color="#9B51E0"/>
<stop offset="1" stop-color="#6161E4"/>
</linearGradient>
<linearGradient id="paint3_linear_5571_168394" x1="30.497" y1="27.6507" x2="34.8798" y2="48.6228" gradientUnits="userSpaceOnUse">
<stop offset="0.32" stop-color="#9B51E0"/>
<stop offset="1" stop-color="#6161E4"/>
</linearGradient>
<linearGradient id="paint4_linear_5571_168394" x1="30.497" y1="27.6507" x2="34.8798" y2="48.6228" gradientUnits="userSpaceOnUse">
<stop offset="0.32" stop-color="#9B51E0"/>
<stop offset="1" stop-color="#6161E4"/>
</linearGradient>
<linearGradient id="paint5_linear_5571_168394" x1="82.3266" y1="48.4658" x2="82.3266" y2="61.1161" gradientUnits="userSpaceOnUse">
<stop offset="0.32" stop-color="#9B51E0"/>
<stop offset="1" stop-color="#6161E4"/>
</linearGradient>
<linearGradient id="paint6_linear_5571_168394" x1="85.326" y1="44" x2="85.326" y2="57.5765" gradientUnits="userSpaceOnUse">
<stop offset="0.32" stop-color="#9B51E0"/>
<stop offset="1" stop-color="#6161E4"/>
</linearGradient>
<linearGradient id="paint7_linear_5571_168394" x1="70.8522" y1="19.0557" x2="64.8803" y2="37.3315" gradientUnits="userSpaceOnUse">
<stop offset="0.32" stop-color="#9B51E0"/>
<stop offset="1" stop-color="#6161E4"/>
</linearGradient>
<linearGradient id="paint8_linear_5571_168394" x1="82.4869" y1="8.6616" x2="73.5339" y2="36.0608" gradientUnits="userSpaceOnUse">
<stop offset="0.32" stop-color="#9B51E0"/>
<stop offset="1" stop-color="#6161E4"/>
</linearGradient>
<linearGradient id="paint9_linear_5571_168394" x1="85.0901" y1="16.0439" x2="82.3947" y2="24.293" gradientUnits="userSpaceOnUse">
<stop offset="0.32" stop-color="#9B51E0"/>
<stop offset="1" stop-color="#6161E4"/>
</linearGradient>
<clipPath id="clip0_5571_168394">
<rect width="24" height="24" fill="white" transform="translate(42 39)"/>
</clipPath>
<clipPath id="clip1_5571_168394">
<rect width="32.7207" height="32.7207" fill="white" transform="translate(65.1631 3) rotate(18.0954)"/>
</clipPath>
</defs>
</svg>
