<svg width="113" height="74" viewBox="0 0 113 74" fill="none" xmlns="http://www.w3.org/2000/svg">
<rect x="1" y="1" width="111" height="72" rx="2" stroke="url(#paint0_linear_5571_168364)" stroke-width="1.53846" stroke-linecap="round" stroke-linejoin="round"/>
<path fill-rule="evenodd" clip-rule="evenodd" d="M85.8259 29.2877L92.8259 22.2847C93.3554 21.7556 93.653 21.0378 93.6533 20.2893C93.6536 19.5407 93.3565 18.8227 92.8274 18.2932C92.2983 17.7637 91.5805 17.4661 90.8319 17.4658C90.0834 17.4655 89.3654 17.7626 88.8359 18.2917L81.8289 25.2887C81.5662 25.5512 81.3578 25.8628 81.2156 26.2058C81.0734 26.5487 81.0001 26.9164 81 27.2877C80.9999 27.659 81.0729 28.0267 81.2148 28.3697C81.3568 28.7128 81.5649 29.0246 81.8274 29.2872C82.0898 29.5499 82.4014 29.7583 82.7444 29.9005C83.0874 30.0427 83.455 30.116 83.8263 30.1161C84.1976 30.1162 84.5653 30.0432 84.9084 29.9013C85.2515 29.7593 85.5632 29.5502 85.8259 29.2877ZM88.8269 20.2877L90.8269 22.2877L91.8269 21.2877C91.9582 21.1564 92.0624 21.0005 92.1334 20.8289C92.2045 20.6574 92.2411 20.4735 92.2411 20.2877C92.2411 20.102 92.2045 19.9181 92.1334 19.7465C92.0624 19.575 91.9582 19.4191 91.8269 19.2877C91.6955 19.1564 91.5396 19.0522 91.3681 18.9812C91.1965 18.9101 91.0126 18.8735 90.8269 18.8735C90.6411 18.8735 90.4573 18.9101 90.2857 18.9812C90.1141 19.0522 89.9582 19.1564 89.8269 19.2877L88.8269 20.2877Z" fill="url(#paint1_linear_5571_168364)"/>
<path d="M84.5856 14.1852C84.6516 13.9382 85.0016 13.9382 85.0676 14.1852L85.4266 15.5132C85.438 15.5554 85.4603 15.5938 85.4911 15.6247C85.522 15.6556 85.5605 15.6778 85.6026 15.6892L86.9306 16.0472C87.1776 16.1132 87.1776 16.4633 86.9306 16.5293L85.6016 16.8882C85.5595 16.8997 85.521 16.9219 85.4901 16.9528C85.4593 16.9837 85.437 17.0221 85.4256 17.0642L85.0666 18.3912C85.0006 18.6382 84.6506 18.6382 84.5846 18.3912L84.2266 17.0633C84.2152 17.0211 84.1929 16.9827 84.1621 16.9518C84.1312 16.9209 84.0928 16.8987 84.0506 16.8872L82.7216 16.5293C82.4756 16.4633 82.4756 16.1132 82.7216 16.0472L84.0516 15.6883C84.0938 15.6768 84.1322 15.6546 84.1631 15.6237C84.1939 15.5928 84.2162 15.5544 84.2276 15.5122L84.5856 14.1852ZM94.5856 13.1852C94.6516 12.9383 95.0016 12.9383 95.0676 13.1852L95.4256 14.5132C95.437 14.5554 95.4593 14.5938 95.4901 14.6247C95.521 14.6556 95.5595 14.6778 95.6016 14.6892L96.9296 15.0472C97.1766 15.1132 97.1766 15.4633 96.9296 15.5293L95.6016 15.8872C95.5595 15.8987 95.521 15.9209 95.4901 15.9518C95.4593 15.9827 95.437 16.0211 95.4256 16.0633L95.0676 17.3912C95.0016 17.6382 94.6516 17.6382 94.5856 17.3912L94.2266 16.0633C94.2151 16.021 94.1927 15.9825 94.1616 15.9516C94.1306 15.9207 94.0919 15.8985 94.0496 15.8872L92.7216 15.5293C92.4756 15.4633 92.4756 15.1132 92.7216 15.0472L94.0496 14.6892C94.0919 14.678 94.1306 14.6558 94.1616 14.6249C94.1927 14.594 94.2151 14.5555 94.2266 14.5132L94.5856 13.1852ZM95.5856 22.1853C95.6516 21.9383 96.0016 21.9383 96.0676 22.1853L96.4256 23.5133C96.437 23.5554 96.4593 23.5938 96.4901 23.6247C96.521 23.6556 96.5595 23.6778 96.6016 23.6892L97.9296 24.0472C98.1766 24.1132 98.1766 24.4633 97.9296 24.5293L96.6016 24.8872C96.5595 24.8987 96.521 24.9209 96.4901 24.9518C96.4593 24.9827 96.437 25.0211 96.4256 25.0632L96.0676 26.3913C96.0016 26.6383 95.6516 26.6383 95.5856 26.3913L95.2276 25.0632C95.2161 25.021 95.1937 24.9825 95.1626 24.9516C95.1316 24.9207 95.0929 24.8985 95.0506 24.8872L93.7226 24.5293C93.4766 24.4633 93.4766 24.1132 93.7226 24.0472L95.0506 23.6892C95.0929 23.678 95.1316 23.6558 95.1626 23.6249C95.1937 23.594 95.2161 23.5555 95.2276 23.5133L95.5856 22.1853Z" fill="url(#paint2_linear_5571_168364)"/>
<path d="M59.7447 32.5475C61.0239 32.6454 62.5697 32.6802 64.1738 32.5259L56.0742 24.4263C55.9199 26.0304 55.9547 27.5761 56.0526 28.8554C56.2053 30.8529 57.7472 32.3948 59.7447 32.5475Z" fill="url(#paint3_linear_5571_168364)"/>
<path d="M71.402 13.5059C70.1228 13.4081 68.577 13.3732 66.9729 13.5275L75.0725 21.6271C75.2269 20.0231 75.192 18.4773 75.0941 17.1981C74.9414 15.2006 73.3995 13.6587 71.402 13.5059Z" fill="url(#paint4_linear_5571_168364)"/>
<path d="M66.9729 13.5275C64.2036 13.794 61.2604 14.6245 59.2157 16.6691C57.1711 18.7137 56.3406 21.6569 56.0742 24.4263M66.9729 13.5275C68.577 13.3732 70.1228 13.4081 71.402 13.5059C73.3995 13.6587 74.9414 15.2006 75.0941 17.1981C75.192 18.4773 75.2269 20.0231 75.0725 21.6271M66.9729 13.5275L75.0725 21.6271M56.0742 24.4263C55.9199 26.0304 55.9547 27.5761 56.0526 28.8554C56.2053 30.8529 57.7472 32.3948 59.7447 32.5475C61.0239 32.6454 62.5697 32.6802 64.1738 32.5259M56.0742 24.4263L64.1738 32.5259M75.0725 21.6271C74.8061 24.3965 73.9757 27.3398 71.931 29.3844C69.8864 31.429 66.9432 32.2595 64.1738 32.5259" stroke="url(#paint5_linear_5571_168364)" stroke-width="1.44069" stroke-linecap="round"/>
<path d="M68.7524 19.8481L62.3948 26.2058M62.3948 23.4811L65.1195 26.2058M64.2113 21.6646L66.9359 24.3893M66.0277 19.8481L68.7524 22.5728" stroke="url(#paint6_linear_5571_168364)" stroke-width="1.44069" stroke-linecap="round"/>
<g clip-path="url(#clip0_5571_168364)">
<path d="M37.7007 54.3767L36.4483 53.1243C36.3656 53.0416 36.2534 52.9951 36.1365 52.9951C36.0195 52.9951 35.9073 53.0416 35.8246 53.1243L35.6981 53.2508L31.4113 48.964V46.7045C31.4113 46.5875 31.3648 46.4753 31.2821 46.3926L20.7932 35.9036C20.5091 35.6196 20.1315 35.4631 19.7298 35.4631C19.3281 35.4631 18.9505 35.6196 18.6665 35.9036L16.1304 38.4397C15.8463 38.7238 15.6899 39.1014 15.6899 39.5031C15.6899 39.9047 15.8463 40.2823 16.1304 40.5664L26.6193 51.0553C26.7021 51.138 26.8142 51.1845 26.9312 51.1845H29.1907L33.4775 55.4713L33.3511 55.5978C33.1788 55.77 33.1788 56.0492 33.3511 56.2215L34.6035 57.4739C34.6862 57.5566 34.7984 57.6031 34.9153 57.6031C35.0323 57.6031 35.1445 57.5566 35.2272 57.4739L37.7007 55.0004C37.8729 54.8282 37.8729 54.5489 37.7007 54.3767Z" fill="url(#paint7_linear_5571_168364)"/>
<path d="M20.2473 49.6082C18.7517 49.6082 17.5349 50.8249 17.5349 52.3205C17.5349 53.8161 18.7517 55.0329 20.2473 55.0329C21.7429 55.0329 22.9596 53.8161 22.9596 52.3205C22.9596 50.8249 21.7429 49.6082 20.2473 49.6082Z" fill="url(#paint8_linear_5571_168364)"/>
</g>
<path d="M39.8798 27.0718L43.8312 29.9426M39.8798 27.0718L35.9285 29.9426M39.8798 27.0718V23.9558M43.8312 29.9426L42.3219 34.5877M43.8312 29.9426L46.6311 28.6298M35.9285 29.9426L37.4378 34.5877M35.9285 29.9426L33.1285 28.6298M39.8798 23.9558L36.3736 21.4465M39.8798 23.9558L43.386 21.4465M42.3219 34.5877H37.4378M42.3219 34.5877L44.0345 36.9391M46.6311 28.6298L50.2152 32.2652M46.6311 28.6298L47.6698 24.3562M37.4378 34.5877L35.7252 36.9391M44.0345 36.9391L48.8769 36.4198M44.0345 36.9391L41.4378 41.4971M35.7252 36.9391L30.8827 36.4198M35.7252 36.9391L38.3218 41.4971M33.1285 28.6298L29.5445 32.2652M33.1285 28.6298L32.0898 24.3562M50.2665 31.2265C50.2665 36.9628 45.6162 41.6131 39.8798 41.6131C34.1434 41.6131 29.4932 36.9628 29.4932 31.2265C29.4932 25.4901 34.1434 20.8398 39.8798 20.8398C45.6162 20.8398 50.2665 25.4901 50.2665 31.2265Z" stroke="url(#paint9_linear_5571_168364)" stroke-width="1.558" stroke-linecap="round" stroke-linejoin="round"/>
<path d="M66.5755 41.6968C65.828 40.949 64.3334 40.52 62.474 40.52C59.2305 40.52 54.4686 41.8167 50.833 45.455C45.6411 50.6516 44.82 58.9503 47.0777 61.2099C47.8248 61.9577 49.3198 62.3866 51.1788 62.3866H51.1795C54.4231 62.3866 59.1842 61.09 62.8199 57.4513C68.0117 52.2551 68.8332 43.9567 66.5755 41.6968ZM62.474 41.2256C62.837 41.2256 63.1821 41.246 63.5112 41.2799C63.7456 41.3458 63.9318 41.4395 64.0557 41.5634C65.3364 42.8452 64.0499 48.4889 59.5344 53.0095C55.0171 57.5301 49.3362 58.837 48.0559 57.5552C47.0209 56.5195 48.1175 50.6359 52.6348 46.115C55.5926 43.1549 59.1007 41.6472 61.4805 41.269C61.811 41.2416 62.1424 41.2271 62.474 41.2256ZM62.3217 56.9528C59.1554 60.1209 55.1079 61.4322 52.0666 61.6457C55.0259 60.5939 58.9192 58.4634 62.3323 53.6863C64.3097 50.9187 65.9089 47.8581 67.0522 45.8332C67.0339 49.0735 65.6578 53.6141 62.3217 56.9528Z" fill="url(#paint10_linear_5571_168364)"/>
<path d="M50.7888 54.6932C50.1755 54.0795 50.3139 51.9304 51.4419 49.7248C49.8249 52.3182 49.3952 54.8408 50.0184 55.4644C50.6416 56.0887 53.1624 55.6583 55.754 54.0402C53.5495 55.1685 51.4025 55.307 50.7888 54.6932ZM61.0235 44.4502C61.6372 45.0639 61.4998 47.2127 60.3708 49.4187C61.9882 46.8253 62.4179 44.303 61.7943 43.6787C61.1715 43.0551 58.6502 43.4851 56.0587 45.1036C58.2628 43.9746 60.4105 43.8365 61.0235 44.4502Z" fill="url(#paint11_linear_5571_168364)"/>
<path d="M89.339 53.8503C94.2852 50.3867 95.4868 43.5686 92.0231 38.6224C88.5605 33.6762 81.7425 32.4746 76.7963 35.9394M89.339 53.8503C84.3927 57.3129 77.5736 56.1113 74.111 51.1651C70.6485 46.2189 71.85 39.4009 76.7963 35.9394M89.339 53.8503L76.7963 35.9394" stroke="url(#paint12_linear_5571_168364)" stroke-width="1.64" stroke-linecap="round" stroke-linejoin="round"/>
<path d="M91.3518 37.7576C87.2299 44.2038 82.0497 47.8315 73.5283 50.2379" stroke="url(#paint13_linear_5571_168364)" stroke-width="1.64" stroke-linecap="round" stroke-linejoin="round"/>
<path d="M84.2265 34.0217C84.678 39.7508 87.9351 44.4018 93.6794 47.5244M72.4546 42.2644C77.684 44.6478 80.9399 49.2988 81.9086 55.7659" stroke="url(#paint14_linear_5571_168364)" stroke-width="1.64" stroke-linecap="round" stroke-linejoin="round"/>
<defs>
<linearGradient id="paint0_linear_5571_168364" x1="56.5" y1="1" x2="56.5" y2="73" gradientUnits="userSpaceOnUse">
<stop offset="0.32" stop-color="#9B51E0"/>
<stop offset="1" stop-color="#6161E4"/>
</linearGradient>
<linearGradient id="paint1_linear_5571_168364" x1="87.3266" y1="17.4658" x2="87.3266" y2="30.1161" gradientUnits="userSpaceOnUse">
<stop offset="0.32" stop-color="#9B51E0"/>
<stop offset="1" stop-color="#6161E4"/>
</linearGradient>
<linearGradient id="paint2_linear_5571_168364" x1="90.326" y1="13" x2="90.326" y2="26.5765" gradientUnits="userSpaceOnUse">
<stop offset="0.32" stop-color="#9B51E0"/>
<stop offset="1" stop-color="#6161E4"/>
</linearGradient>
<linearGradient id="paint3_linear_5571_168364" x1="65.5734" y1="13.4221" x2="65.5734" y2="32.6313" gradientUnits="userSpaceOnUse">
<stop offset="0.32" stop-color="#9B51E0"/>
<stop offset="1" stop-color="#6161E4"/>
</linearGradient>
<linearGradient id="paint4_linear_5571_168364" x1="65.5734" y1="13.4221" x2="65.5734" y2="32.6313" gradientUnits="userSpaceOnUse">
<stop offset="0.32" stop-color="#9B51E0"/>
<stop offset="1" stop-color="#6161E4"/>
</linearGradient>
<linearGradient id="paint5_linear_5571_168364" x1="65.5734" y1="13.4221" x2="65.5734" y2="32.6313" gradientUnits="userSpaceOnUse">
<stop offset="0.32" stop-color="#9B51E0"/>
<stop offset="1" stop-color="#6161E4"/>
</linearGradient>
<linearGradient id="paint6_linear_5571_168364" x1="65.5736" y1="19.8481" x2="65.5736" y2="26.2058" gradientUnits="userSpaceOnUse">
<stop offset="0.32" stop-color="#9B51E0"/>
<stop offset="1" stop-color="#6161E4"/>
</linearGradient>
<linearGradient id="paint7_linear_5571_168364" x1="26.7599" y1="35.4631" x2="26.7599" y2="57.6031" gradientUnits="userSpaceOnUse">
<stop offset="0.32" stop-color="#9B51E0"/>
<stop offset="1" stop-color="#6161E4"/>
</linearGradient>
<linearGradient id="paint8_linear_5571_168364" x1="20.2473" y1="49.6082" x2="20.2473" y2="55.0329" gradientUnits="userSpaceOnUse">
<stop offset="0.32" stop-color="#9B51E0"/>
<stop offset="1" stop-color="#6161E4"/>
</linearGradient>
<linearGradient id="paint9_linear_5571_168364" x1="39.8798" y1="20.8398" x2="39.8798" y2="41.6131" gradientUnits="userSpaceOnUse">
<stop offset="0.32" stop-color="#9B51E0"/>
<stop offset="1" stop-color="#6161E4"/>
</linearGradient>
<linearGradient id="paint10_linear_5571_168364" x1="56.8265" y1="40.52" x2="56.8265" y2="62.3866" gradientUnits="userSpaceOnUse">
<stop offset="0.32" stop-color="#9B51E0"/>
<stop offset="1" stop-color="#6161E4"/>
</linearGradient>
<linearGradient id="paint11_linear_5571_168364" x1="55.9064" y1="43.4053" x2="55.9064" y2="55.7382" gradientUnits="userSpaceOnUse">
<stop offset="0.32" stop-color="#9B51E0"/>
<stop offset="1" stop-color="#6161E4"/>
</linearGradient>
<linearGradient id="paint12_linear_5571_168364" x1="83.0675" y1="33.96" x2="83.0675" y2="55.8281" gradientUnits="userSpaceOnUse">
<stop offset="0.32" stop-color="#9B51E0"/>
<stop offset="1" stop-color="#6161E4"/>
</linearGradient>
<linearGradient id="paint13_linear_5571_168364" x1="82.4401" y1="37.7576" x2="82.4401" y2="50.2379" gradientUnits="userSpaceOnUse">
<stop offset="0.32" stop-color="#9B51E0"/>
<stop offset="1" stop-color="#6161E4"/>
</linearGradient>
<linearGradient id="paint14_linear_5571_168364" x1="83.067" y1="34.0217" x2="83.067" y2="55.7659" gradientUnits="userSpaceOnUse">
<stop offset="0.32" stop-color="#9B51E0"/>
<stop offset="1" stop-color="#6161E4"/>
</linearGradient>
<clipPath id="clip0_5571_168364">
<rect width="22.14" height="22.14" fill="white" transform="translate(15.6899 35.4631)"/>
</clipPath>
</defs>
</svg>
