<svg width="113" height="74" viewBox="0 0 113 74" fill="none" xmlns="http://www.w3.org/2000/svg">
<rect x="1" y="1" width="111" height="72" rx="2" stroke="url(#paint0_linear_2791_329254)" stroke-width="1.53846" stroke-linecap="round" stroke-linejoin="round"/>
<path d="M44.6667 22.0003C45.0203 22.0003 45.3594 22.1408 45.6095 22.3909C45.8595 22.6409 46 22.98 46 23.3337C46 22.98 46.1405 22.6409 46.3905 22.3909C46.6406 22.1408 46.9797 22.0003 47.3333 22.0003C46.9797 22.0003 46.6406 21.8598 46.3905 21.6098C46.1405 21.3598 46 21.0206 46 20.667C46 21.0206 45.8595 21.3598 45.6095 21.6098C45.3594 21.8598 45.0203 22.0003 44.6667 22.0003ZM44.6667 14.0003C45.0203 14.0003 45.3594 14.1408 45.6095 14.3908C45.8595 14.6409 46 14.98 46 15.3337C46 14.98 46.1405 14.6409 46.3905 14.3908C46.6406 14.1408 46.9797 14.0003 47.3333 14.0003C46.9797 14.0003 46.6406 13.8598 46.3905 13.6098C46.1405 13.3598 46 13.0206 46 12.667C46 13.0206 45.8595 13.3598 45.6095 13.6098C45.3594 13.8598 45.0203 14.0003 44.6667 14.0003ZM40 22.0003C40 20.9395 40.4214 19.922 41.1716 19.1719C41.9217 18.4218 42.9391 18.0003 44 18.0003C42.9391 18.0003 41.9217 17.5789 41.1716 16.8288C40.4214 16.0786 40 15.0612 40 14.0003C40 15.0612 39.5786 16.0786 38.8284 16.8288C38.0783 17.5789 37.0609 18.0003 36 18.0003C37.0609 18.0003 38.0783 18.4218 38.8284 19.1719C39.5786 19.922 40 20.9395 40 22.0003Z" stroke="#9B51E0" stroke-width="1.33333" stroke-linecap="round" stroke-linejoin="round"/>
<path d="M87.7778 14H65.2222C63.4426 14 62 15.4426 62 17.2222V39.7778C62 41.5574 63.4426 43 65.2222 43H87.7778C89.5574 43 91 41.5574 91 39.7778V17.2222C91 15.4426 89.5574 14 87.7778 14Z" stroke="url(#paint1_linear_2791_329254)" stroke-width="2.14815" stroke-linecap="round" stroke-linejoin="round"/>
<path d="M71.6675 26.8888C73.4471 26.8888 74.8898 25.4461 74.8898 23.6666C74.8898 21.887 73.4471 20.4443 71.6675 20.4443C69.888 20.4443 68.4453 21.887 68.4453 23.6666C68.4453 25.4461 69.888 26.8888 71.6675 26.8888Z" stroke="url(#paint2_linear_2791_329254)" stroke-width="2.14815" stroke-linecap="round" stroke-linejoin="round"/>
<path d="M91.0007 33.3333L86.0288 28.3614C85.4245 27.7573 84.6051 27.418 83.7507 27.418C82.8962 27.418 82.0768 27.7573 81.4725 28.3614L66.834 42.9999" stroke="url(#paint3_linear_2791_329254)" stroke-width="2.14815" stroke-linecap="round" stroke-linejoin="round"/>
<path d="M48.6667 28H25.3333C23.4924 28 22 29.4924 22 31.3333V54.6667C22 56.5076 23.4924 58 25.3333 58H48.6667C50.5076 58 52 56.5076 52 54.6667V31.3333C52 29.4924 50.5076 28 48.6667 28Z" stroke="url(#paint4_linear_2791_329254)" stroke-width="1.53846" stroke-linecap="round" stroke-linejoin="round"/>
<path d="M28.6667 28V58M22 35.5H28.6667M22 43H52M22 50.5H28.6667M45.3333 28V58M45.3333 35.5H52M45.3333 50.5H52" stroke="url(#paint5_linear_2791_329254)" stroke-width="1.53846" stroke-linecap="round" stroke-linejoin="round"/>
<path fill-rule="evenodd" clip-rule="evenodd" d="M66.8259 63.2877L73.8259 56.2847C74.3554 55.7556 74.653 55.0378 74.6533 54.2893C74.6536 53.5407 74.3565 52.8227 73.8274 52.2932C73.2983 51.7637 72.5805 51.4661 71.8319 51.4658C71.0834 51.4655 70.3654 51.7626 69.8359 52.2917L62.8289 59.2887C62.5662 59.5512 62.3578 59.8628 62.2156 60.2058C62.0734 60.5487 62.0001 60.9164 62 61.2877C61.9999 61.659 62.0729 62.0267 62.2148 62.3697C62.3568 62.7128 62.5649 63.0246 62.8274 63.2872C63.0898 63.5499 63.4014 63.7583 63.7444 63.9005C64.0874 64.0427 64.455 64.116 64.8263 64.1161C65.1976 64.1162 65.5653 64.0432 65.9084 63.9013C66.2515 63.7593 66.5632 63.5502 66.8259 63.2877ZM69.8269 54.2877L71.8269 56.2877L72.8269 55.2877C72.9582 55.1564 73.0624 55.0005 73.1334 54.8289C73.2045 54.6574 73.2411 54.4735 73.2411 54.2877C73.2411 54.102 73.2045 53.9181 73.1334 53.7465C73.0624 53.575 72.9582 53.4191 72.8269 53.2877C72.6955 53.1564 72.5396 53.0522 72.3681 52.9812C72.1965 52.9101 72.0126 52.8735 71.8269 52.8735C71.6411 52.8735 71.4573 52.9101 71.2857 52.9812C71.1141 53.0522 70.9582 53.1564 70.8269 53.2877L69.8269 54.2877Z" fill="url(#paint6_linear_2791_329254)"/>
<path d="M65.5856 48.1852C65.6516 47.9382 66.0016 47.9382 66.0676 48.1852L66.4266 49.5132C66.438 49.5554 66.4603 49.5938 66.4911 49.6247C66.522 49.6556 66.5605 49.6778 66.6026 49.6892L67.9306 50.0472C68.1776 50.1132 68.1776 50.4633 67.9306 50.5293L66.6016 50.8882C66.5595 50.8997 66.521 50.9219 66.4901 50.9528C66.4593 50.9837 66.437 51.0221 66.4256 51.0642L66.0666 52.3912C66.0006 52.6382 65.6506 52.6382 65.5846 52.3912L65.2266 51.0633C65.2152 51.0211 65.1929 50.9827 65.1621 50.9518C65.1312 50.9209 65.0928 50.8987 65.0506 50.8872L63.7216 50.5293C63.4756 50.4633 63.4756 50.1132 63.7216 50.0472L65.0516 49.6883C65.0938 49.6768 65.1322 49.6546 65.1631 49.6237C65.1939 49.5928 65.2162 49.5544 65.2276 49.5122L65.5856 48.1852ZM75.5856 47.1852C75.6516 46.9383 76.0016 46.9383 76.0676 47.1852L76.4256 48.5132C76.437 48.5554 76.4593 48.5938 76.4901 48.6247C76.521 48.6556 76.5595 48.6778 76.6016 48.6892L77.9296 49.0472C78.1766 49.1132 78.1766 49.4633 77.9296 49.5293L76.6016 49.8872C76.5595 49.8987 76.521 49.9209 76.4901 49.9518C76.4593 49.9827 76.437 50.0211 76.4256 50.0633L76.0676 51.3912C76.0016 51.6382 75.6516 51.6382 75.5856 51.3912L75.2266 50.0633C75.2151 50.021 75.1927 49.9825 75.1616 49.9516C75.1306 49.9207 75.0919 49.8985 75.0496 49.8872L73.7216 49.5293C73.4756 49.4633 73.4756 49.1132 73.7216 49.0472L75.0496 48.6892C75.0919 48.678 75.1306 48.6558 75.1616 48.6249C75.1927 48.594 75.2151 48.5555 75.2266 48.5132L75.5856 47.1852ZM76.5856 56.1853C76.6516 55.9383 77.0016 55.9383 77.0676 56.1853L77.4256 57.5133C77.437 57.5554 77.4593 57.5938 77.4901 57.6247C77.521 57.6556 77.5595 57.6778 77.6016 57.6892L78.9296 58.0472C79.1766 58.1132 79.1766 58.4633 78.9296 58.5293L77.6016 58.8872C77.5595 58.8987 77.521 58.9209 77.4901 58.9518C77.4593 58.9827 77.437 59.0211 77.4256 59.0632L77.0676 60.3913C77.0016 60.6383 76.6516 60.6383 76.5856 60.3913L76.2276 59.0632C76.2161 59.021 76.1937 58.9825 76.1626 58.9516C76.1316 58.9207 76.0929 58.8985 76.0506 58.8872L74.7226 58.5293C74.4766 58.4633 74.4766 58.1132 74.7226 58.0472L76.0506 57.6892C76.0929 57.678 76.1316 57.6558 76.1626 57.6249C76.1937 57.594 76.2161 57.5555 76.2276 57.5133L76.5856 56.1853Z" fill="url(#paint7_linear_2791_329254)"/>
<defs>
<linearGradient id="paint0_linear_2791_329254" x1="56.5" y1="1" x2="56.5" y2="73" gradientUnits="userSpaceOnUse">
<stop offset="0.32" stop-color="#9B51E0"/>
<stop offset="1" stop-color="#6161E4"/>
</linearGradient>
<linearGradient id="paint1_linear_2791_329254" x1="76.5" y1="14" x2="76.5" y2="43" gradientUnits="userSpaceOnUse">
<stop offset="0.32" stop-color="#9B51E0"/>
<stop offset="1" stop-color="#6161E4"/>
</linearGradient>
<linearGradient id="paint2_linear_2791_329254" x1="71.6675" y1="20.4443" x2="71.6675" y2="26.8888" gradientUnits="userSpaceOnUse">
<stop offset="0.32" stop-color="#9B51E0"/>
<stop offset="1" stop-color="#6161E4"/>
</linearGradient>
<linearGradient id="paint3_linear_2791_329254" x1="78.9173" y1="27.418" x2="78.9173" y2="42.9999" gradientUnits="userSpaceOnUse">
<stop offset="0.32" stop-color="#9B51E0"/>
<stop offset="1" stop-color="#6161E4"/>
</linearGradient>
<linearGradient id="paint4_linear_2791_329254" x1="37" y1="28" x2="37" y2="58" gradientUnits="userSpaceOnUse">
<stop offset="0.32" stop-color="#9B51E0"/>
<stop offset="1" stop-color="#6161E4"/>
</linearGradient>
<linearGradient id="paint5_linear_2791_329254" x1="37" y1="28" x2="37" y2="58" gradientUnits="userSpaceOnUse">
<stop offset="0.32" stop-color="#9B51E0"/>
<stop offset="1" stop-color="#6161E4"/>
</linearGradient>
<linearGradient id="paint6_linear_2791_329254" x1="68.3266" y1="51.4658" x2="68.3266" y2="64.1161" gradientUnits="userSpaceOnUse">
<stop offset="0.32" stop-color="#9B51E0"/>
<stop offset="1" stop-color="#6161E4"/>
</linearGradient>
<linearGradient id="paint7_linear_2791_329254" x1="71.326" y1="47" x2="71.326" y2="60.5765" gradientUnits="userSpaceOnUse">
<stop offset="0.32" stop-color="#9B51E0"/>
<stop offset="1" stop-color="#6161E4"/>
</linearGradient>
</defs>
</svg>
