<svg width="111" height="72" viewBox="0 0 111 72" fill="none" xmlns="http://www.w3.org/2000/svg">
<rect x="1" y="1" width="109" height="70" rx="1" stroke="#7B7580" stroke-width="2"/>
<path d="M86.7778 13H64.2222C62.4426 13 61 14.4426 61 16.2222V38.7778C61 40.5574 62.4426 42 64.2222 42H86.7778C88.5574 42 90 40.5574 90 38.7778V16.2222C90 14.4426 88.5574 13 86.7778 13Z" stroke="#A7A7B2" stroke-width="2.14815" stroke-linecap="round" stroke-linejoin="round"/>
<path d="M70.6675 25.8888C72.4471 25.8888 73.8898 24.4461 73.8898 22.6666C73.8898 20.887 72.4471 19.4443 70.6675 19.4443C68.888 19.4443 67.4453 20.887 67.4453 22.6666C67.4453 24.4461 68.888 25.8888 70.6675 25.8888Z" stroke="#A7A7B2" stroke-width="2.14815" stroke-linecap="round" stroke-linejoin="round"/>
<path d="M90.0007 32.3333L85.0288 27.3614C84.4245 26.7573 83.6051 26.418 82.7507 26.418C81.8962 26.418 81.0768 26.7573 80.4725 27.3614L65.834 41.9999" stroke="#A7A7B2" stroke-width="2.14815" stroke-linecap="round" stroke-linejoin="round"/>
<path d="M47.6667 27H24.3333C22.4924 27 21 28.4924 21 30.3333V53.6667C21 55.5076 22.4924 57 24.3333 57H47.6667C49.5076 57 51 55.5076 51 53.6667V30.3333C51 28.4924 49.5076 27 47.6667 27Z" stroke="#A7A7B2" stroke-width="1.53846" stroke-linecap="round" stroke-linejoin="round"/>
<path d="M27.6667 27V57M21 34.5H27.6667M21 42H51M21 49.5H27.6667M44.3333 27V57M44.3333 34.5H51M44.3333 49.5H51" stroke="#A7A7B2" stroke-width="1.53846" stroke-linecap="round" stroke-linejoin="round"/>
</svg>
