<svg width="20" height="20" viewBox="0 0 20 20" fill="none" xmlns="http://www.w3.org/2000/svg">
<path d="M5.16602 7.29169H6.45768C6.91792 7.29169 7.29102 6.91859 7.29102 6.45835V5.16669H12.9576V6.45835C12.9576 6.91859 13.3307 7.29169 13.7909 7.29169H15.0826V12.9584H13.7909C13.3307 12.9584 12.9576 13.3314 12.9576 13.7917V15.0834H7.29102V13.7917C7.29102 13.3314 6.91792 12.9584 6.45768 12.9584H5.16602V7.29169Z" stroke="currentColor" stroke-width="1.5" stroke-linecap="round" stroke-linejoin="round"/>
<path d="M3.75 4.14352C3.75 4.03915 3.79146 3.93906 3.86526 3.86526C3.93906 3.79146 4.03915 3.75 4.14352 3.75H6.89815C7.00252 3.75 7.10261 3.79146 7.17641 3.86526C7.25021 3.93906 7.29167 4.03915 7.29167 4.14352V6.89815C7.29167 7.00252 7.25021 7.10261 7.17641 7.17641C7.10261 7.25021 7.00252 7.29167 6.89815 7.29167H4.14352C4.03915 7.29167 3.93906 7.25021 3.86526 7.17641C3.79146 7.10261 3.75 7.00252 3.75 6.89815V4.14352Z" stroke="currentColor" stroke-width="1.5" stroke-linecap="round" stroke-linejoin="round"/>
<path d="M3.75 13.3518C3.75 13.2475 3.79146 13.1474 3.86526 13.0736C3.93906 12.9998 4.03915 12.9583 4.14352 12.9583H6.89815C7.00252 12.9583 7.10261 12.9998 7.17641 13.0736C7.25021 13.1474 7.29167 13.2475 7.29167 13.3518V16.1065C7.29167 16.2108 7.25021 16.3109 7.17641 16.3847C7.10261 16.4585 7.00252 16.5 6.89815 16.5H4.14352C4.03915 16.5 3.93906 16.4585 3.86526 16.3847C3.79146 16.3109 3.75 16.2108 3.75 16.1065V13.3518Z" stroke="currentColor" stroke-width="1.5" stroke-linecap="round" stroke-linejoin="round"/>
<path d="M12.959 13.3518C12.959 13.2475 13.0004 13.1474 13.0742 13.0736C13.148 12.9998 13.2481 12.9583 13.3525 12.9583H16.1071C16.2115 12.9583 16.3116 12.9998 16.3854 13.0736C16.4592 13.1474 16.5007 13.2475 16.5007 13.3518V16.1065C16.5007 16.2108 16.4592 16.3109 16.3854 16.3847C16.3116 16.4585 16.2115 16.5 16.1071 16.5H13.3525C13.2481 16.5 13.148 16.4585 13.0742 16.3847C13.0004 16.3109 12.959 16.2108 12.959 16.1065V13.3518Z" stroke="currentColor" stroke-width="1.5" stroke-linecap="round" stroke-linejoin="round"/>
<path d="M12.959 4.14352C12.959 4.03915 13.0004 3.93906 13.0742 3.86526C13.148 3.79146 13.2481 3.75 13.3525 3.75H16.1071C16.2115 3.75 16.3116 3.79146 16.3854 3.86526C16.4592 3.93906 16.5007 4.03915 16.5007 4.14352V6.89815C16.5007 7.00252 16.4592 7.10261 16.3854 7.17641C16.3116 7.25021 16.2115 7.29167 16.1071 7.29167H13.3525C13.2481 7.29167 13.148 7.25021 13.0742 7.17641C13.0004 7.10261 12.959 7.00252 12.959 6.89815V4.14352Z" stroke="currentColor" stroke-width="1.5" stroke-linecap="round" stroke-linejoin="round"/>
</svg>
