<svg width="20" height="20" viewBox="0 0 20 20" fill="none" xmlns="http://www.w3.org/2000/svg">
<path d="M9.48 9.48V6.6H10.92V9.48H13.8V10.92H10.92V13.8H9.48V10.92H6.6V9.48H9.48ZM10.2 17.4C6.22344 17.4 3 14.1766 3 10.2C3 6.22344 6.22344 3 10.2 3C14.1766 3 17.4 6.22344 17.4 10.2C17.4 14.1766 14.1766 17.4 10.2 17.4ZM10.2 15.96C11.7276 15.96 13.1927 15.3531 14.2729 14.2729C15.3531 13.1927 15.96 11.7276 15.96 10.2C15.96 8.67235 15.3531 7.20727 14.2729 6.12706C13.1927 5.04686 11.7276 4.44 10.2 4.44C8.67235 4.44 7.20727 5.04686 6.12706 6.12706C5.04686 7.20727 4.44 8.67235 4.44 10.2C4.44 11.7276 5.04686 13.1927 6.12706 14.2729C7.20727 15.3531 8.67235 15.96 10.2 15.96Z" fill="currentColor"/>
</svg>
