<svg width="20" height="20" viewBox="0 0 20 20" fill="none" xmlns="http://www.w3.org/2000/svg">
<path d="M10.6256 15.625L10.4362 15.8144C9.85045 16.4002 8.90074 16.4002 8.31495 15.8144L2.98833 10.4883C2.67575 10.1758 2.50009 9.75199 2.5 9.31V5C2.5 4.33696 2.76339 3.70107 3.23223 3.23223C3.70107 2.76339 4.33696 2.5 5 2.5H9.31C9.75199 2.50009 10.1758 2.67575 10.4883 2.98833L15.8333 8.33333M13.1256 13.75H15.6256M15.6256 13.75H18.1256M15.6256 13.75V16.25M15.6256 13.75V11.25M5.41667 6.25C5.41667 6.47101 5.50446 6.68297 5.66074 6.83926C5.81702 6.99554 6.02899 7.08333 6.25 7.08333C6.47101 7.08333 6.68298 6.99554 6.83926 6.83926C6.99554 6.68297 7.08333 6.47101 7.08333 6.25C7.08333 6.02899 6.99554 5.81702 6.83926 5.66074C6.68298 5.50446 6.47101 5.41667 6.25 5.41667C6.02899 5.41667 5.81702 5.50446 5.66074 5.66074C5.50446 5.81702 5.41667 6.02899 5.41667 6.25Z" stroke="currentColor" stroke-width="1.68367" stroke-linecap="round" stroke-linejoin="round"/>
</svg>
