<svg width="20" height="20" viewBox="0 0 20 20" fill="none" xmlns="http://www.w3.org/2000/svg">
<path d="M13.5 4.5H4.5C4.23478 4.5 3.98043 4.60536 3.79289 4.79289C3.60536 4.98043 3.5 5.23478 3.5 5.5V14.5M11.5 10V15M9 12.5H14M7.5 7.5H15.5C15.7652 7.5 16.0196 7.60536 16.2071 7.79289C16.3946 7.98043 16.5 8.23478 16.5 8.5V16.5C16.5 16.7652 16.3946 17.0196 16.2071 17.2071C16.0196 17.3946 15.7652 17.5 15.5 17.5H7.5C7.23478 17.5 6.98043 17.3946 6.79289 17.2071C6.60536 17.0196 6.5 16.7652 6.5 16.5V8.5C6.5 8.23478 6.60536 7.98043 6.79289 7.79289C6.98043 7.60536 7.23478 7.5 7.5 7.5Z" stroke="currentColor" stroke-width="1.5" stroke-linecap="round" stroke-linejoin="round"/>
</svg>
