<svg width="21" height="20" viewBox="0 0 21 20" fill="none" xmlns="http://www.w3.org/2000/svg">
  <path d="M10.4923 5.57031C10.6601 5.57031 10.8211 5.63699 10.9398 5.75566C11.0584 5.87434 11.1251 6.0353 11.1251 6.20314V9.36728H14.2893C14.4571 9.36728 14.6181 9.43395 14.7367 9.55263C14.8554 9.6713 14.9221 9.83227 14.9221 10.0001C14.9221 10.1679 14.8554 10.3289 14.7367 10.4476C14.6181 10.5663 14.4571 10.6329 14.2893 10.6329H11.1251V13.7971C11.1251 13.9649 11.0584 14.1259 10.9398 14.2445C10.8211 14.3632 10.6601 14.4299 10.4923 14.4299C10.3245 14.4299 10.1635 14.3632 10.0448 14.2445C9.92614 14.1259 9.85946 13.9649 9.85946 13.7971V10.6329H6.69533C6.52749 10.6329 6.36653 10.5663 6.24785 10.4476C6.12917 10.3289 6.0625 10.1679 6.0625 10.0001C6.0625 9.83227 6.12917 9.6713 6.24785 9.55263C6.36653 9.43395 6.52749 9.36728 6.69533 9.36728H9.85946V6.20314C9.85946 6.0353 9.92614 5.87434 10.0448 5.75566C10.1635 5.63699 10.3245 5.57031 10.4923 5.57031Z" fill="currentColor" stroke="currentColor" stroke-width="0.5"/>
  <path fill-rule="evenodd" clip-rule="evenodd" d="M1 8.60778C1 5.77272 1 4.35518 1.55183 3.26672C2.03954 2.31439 2.81439 1.53954 3.76672 1.05183C4.85012 0.5 6.27272 0.5 9.10778 0.5H11.8922C14.7273 0.5 16.1448 0.5 17.2333 1.05183C18.1863 1.53657 18.9546 2.31115 19.4482 3.26672C20 4.35012 20 5.77272 20 8.60778V11.3922C20 14.2273 20 15.6448 19.4482 16.7333C18.9605 17.6856 18.1856 18.4605 17.2333 18.9482C16.1499 19.5 14.7273 19.5 11.8922 19.5H9.10778C6.27272 19.5 4.85518 19.5 3.76672 18.9482C2.81439 18.4605 2.03954 17.6856 1.55183 16.7333C1 15.6499 1 14.2273 1 11.3922V8.60778ZM9.10019 1.77325H11.8846C13.3275 1.77325 14.3273 1.77325 15.112 1.8378C15.8778 1.90108 16.3182 2.01752 16.6561 2.18712C17.3689 2.55243 17.9488 3.1324 18.3141 3.84512C18.4837 4.17799 18.6002 4.61844 18.6635 5.38922C18.7268 6.17013 18.728 7.17379 18.728 8.61664V11.4011C18.728 12.8439 18.728 13.8438 18.6635 14.6285C18.6002 15.3942 18.4837 15.8347 18.3141 16.1726C17.9502 16.8863 17.3699 17.4667 16.6561 17.8306C16.3233 18.0002 15.8828 18.1166 15.112 18.1799C14.3311 18.2432 13.3275 18.2445 11.8846 18.2445H9.10019C7.65734 18.2445 6.65747 18.2445 5.87277 18.1812C5.10705 18.1179 4.6666 18.0002 4.32867 17.8306C3.61492 17.4667 3.03457 16.8863 2.67066 16.1726C2.50107 15.8397 2.38463 15.4005 2.32134 14.6285C2.25806 13.8476 2.25679 12.8439 2.25679 11.4011V8.61664C2.25679 7.17379 2.25679 6.17393 2.32134 5.38922C2.38463 4.6235 2.50107 4.18305 2.67066 3.84512C3.03598 3.1324 3.61595 2.55243 4.32867 2.18712C4.66154 2.01752 5.10198 1.90108 5.87277 1.8378C6.65368 1.77451 7.65734 1.77325 9.10019 1.77325Z" fill="currentColor" stroke="currentColor" stroke-width="0.5"/>
</svg>
