<svg width="16" height="17" viewBox="0 0 16 17" fill="none" xmlns="http://www.w3.org/2000/svg">
<path d="M10.6667 12.4998C11.0203 12.4998 11.3594 12.6403 11.6095 12.8904C11.8595 13.1404 12 13.4795 12 13.8332C12 13.4795 12.1405 13.1404 12.3905 12.8904C12.6406 12.6403 12.9797 12.4998 13.3333 12.4998C12.9797 12.4998 12.6406 12.3594 12.3905 12.1093C12.1405 11.8593 12 11.5201 12 11.1665C12 11.5201 11.8595 11.8593 11.6095 12.1093C11.3594 12.3594 11.0203 12.4998 10.6667 12.4998ZM10.6667 4.49984C11.0203 4.49984 11.3594 4.64031 11.6095 4.89036C11.8595 5.14041 12 5.47955 12 5.83317C12 5.47955 12.1405 5.14041 12.3905 4.89036C12.6406 4.64031 12.9797 4.49984 13.3333 4.49984C12.9797 4.49984 12.6406 4.35936 12.3905 4.10931C12.1405 3.85926 12 3.52013 12 3.1665C12 3.52013 11.8595 3.85926 11.6095 4.10931C11.3594 4.35936 11.0203 4.49984 10.6667 4.49984ZM6 12.4998C6 11.439 6.42143 10.4216 7.17157 9.67141C7.92172 8.92126 8.93913 8.49984 10 8.49984C8.93913 8.49984 7.92172 8.07841 7.17157 7.32826C6.42143 6.57812 6 5.5607 6 4.49984C6 5.5607 5.57857 6.57812 4.82843 7.32826C4.07828 8.07841 3.06087 8.49984 2 8.49984C3.06087 8.49984 4.07828 8.92126 4.82843 9.67141C5.57857 10.4216 6 11.439 6 12.4998Z" stroke="#BD6DFF" stroke-width="1.33333" stroke-linecap="round" stroke-linejoin="round"/>
</svg>
