<svg width="28" height="28" viewBox="0 0 28 28" fill="none" xmlns="http://www.w3.org/2000/svg">
  <path d="M15.4 11.0236V25.0992C20.4666 24.4636 24.4818 20.4288 25.1132 15.3384H21L26.1856 7C27.3788 9.11453 28.0039 11.5021 28 13.93C28 21.7 21.7322 28 14 28C6.2678 28 0 21.7 0 13.93C0 11.41 0.6594 9.0454 1.8144 7L7 15.3384H2.8868C3.5182 20.4288 7.53479 24.4636 12.6 25.0992V11.0236C11.2833 10.6796 10.1368 9.86809 9.37467 8.74066C8.6125 7.61323 8.28673 6.24693 8.45819 4.89689C8.62964 3.54685 9.2866 2.30536 10.3064 1.40424C11.3262 0.50312 12.6391 0.00397314 14 2.73795e-06C15.364 -0.00134534 16.6815 0.49516 17.7054 1.39633C18.7293 2.29749 19.3891 3.54136 19.5609 4.89447C19.7327 6.24757 19.4048 7.61687 18.6387 8.74537C17.8726 9.87386 16.721 10.684 15.4 11.0236ZM14 8.4C14.7426 8.4 15.4548 8.105 15.9799 7.5799C16.505 7.0548 16.8 6.34261 16.8 5.6C16.8 4.8574 16.505 4.14521 15.9799 3.6201C15.4548 3.095 14.7426 2.8 14 2.8C13.2574 2.8 12.5452 3.095 12.0201 3.6201C11.495 4.14521 11.2 4.8574 11.2 5.6C11.2 6.34261 11.495 7.0548 12.0201 7.5799C12.5452 8.105 13.2574 8.4 14 8.4Z" fill="currentColor"/>
</svg>
