<svg width="24" height="24" viewBox="0 0 24 24" fill="none" xmlns="http://www.w3.org/2000/svg">
  <path d="M9.65217 8.67538L19.826 18.8493M9.65217 15.3279L19.826 5.15404M4.17383 7.11055C4.17383 7.8889 4.48303 8.63538 5.0334 9.18575C5.58378 9.73613 6.33025 10.0453 7.1086 10.0453C7.88695 10.0453 8.63342 9.73613 9.1838 9.18575C9.73418 8.63538 10.0434 7.8889 10.0434 7.11055C10.0434 6.3322 9.73418 5.58573 9.1838 5.03536C8.63342 4.48498 7.88695 4.17578 7.1086 4.17578C6.33025 4.17578 5.58378 4.48498 5.0334 5.03536C4.48303 5.58573 4.17383 6.3322 4.17383 7.11055ZM4.17383 16.8931C4.17383 17.6715 4.48303 18.418 5.0334 18.9683C5.58378 19.5187 6.33025 19.8279 7.1086 19.8279C7.88695 19.8279 8.63342 19.5187 9.1838 18.9683C9.73418 18.418 10.0434 17.6715 10.0434 16.8931C10.0434 16.1148 9.73418 15.3683 9.1838 14.8179C8.63342 14.2676 7.88695 13.9584 7.1086 13.9584C6.33025 13.9584 5.58378 14.2676 5.0334 14.8179C4.48303 15.3683 4.17383 16.1148 4.17383 16.8931Z" stroke="currentColor" stroke-width="1.70432" stroke-linecap="round" stroke-linejoin="round"/>
</svg>
