<svg width="20" height="20" viewBox="0 0 20 20" fill="none" xmlns="http://www.w3.org/2000/svg">
<path d="M12.5172 10.5124L17.5 13.4712L15.3728 14.0903L16.8932 16.7716L15.654 17.5L14.1335 14.8195L12.5429 16.3855L12.5172 10.5124ZM11.0861 5.41361H12.5172V6.87042H16.0947C16.2845 6.87042 16.4665 6.94716 16.6007 7.08376C16.7349 7.22036 16.8102 7.40564 16.8102 7.59882V10.5124H15.3792V8.32722H8.2241V15.6113H11.0861V17.0681H7.50859C7.31882 17.0681 7.13683 16.9913 7.00264 16.8547C6.86846 16.7181 6.79307 16.5328 6.79307 16.3397V12.6976H5.36205V11.2408H6.79307V7.59882C6.79307 7.40564 6.86846 7.22036 7.00264 7.08376C7.13683 6.94716 7.31882 6.87042 7.50859 6.87042H11.0861V5.41361ZM3.93102 11.2408V12.6976H2.5V11.2408H3.93102ZM3.93102 8.32722V9.78403H2.5V8.32722H3.93102ZM3.93102 5.41361V6.87042H2.5V5.41361H3.93102ZM3.93102 2.5V3.95681H2.5V2.5H3.93102ZM6.79307 2.5V3.95681H5.36205V2.5H6.79307ZM9.65512 2.5V3.95681H8.2241V2.5H9.65512ZM12.5172 2.5V3.95681H11.0861V2.5H12.5172Z" fill="currentColor"/>
</svg>
