<svg width="21" height="21" viewBox="0 0 21 21" fill="none" xmlns="http://www.w3.org/2000/svg">
  <path fill-rule="evenodd" clip-rule="evenodd" d="M4.12053 10.6384L3.65469 10.3652C3.48564 10.2666 3.34592 10.1279 3.24896 9.96257C3.152 9.7972 3.10107 9.6107 3.10107 9.421C3.10107 9.23131 3.152 9.04481 3.24896 8.87944C3.34592 8.71407 3.48564 8.5754 3.65469 8.47676L12.0384 3.56147C12.2142 3.45873 12.4153 3.40255 12.6212 3.39865C12.827 3.39476 13.0303 3.44329 13.2102 3.53929C13.3901 3.6353 13.5402 3.77534 13.6452 3.94512C13.7502 4.1149 13.8063 4.30835 13.8079 4.50571L13.8079 14.3363C13.8063 14.5337 13.7502 14.7271 13.6452 14.8969C13.5402 15.0667 13.3901 15.2067 13.2102 15.3027C13.0303 15.3987 12.827 15.4472 12.6212 15.4434C12.4153 15.4395 12.2142 15.3833 12.0384 15.2805L11.9008 15.1999V13.3983C11.9008 12.5893 11.5795 11.8136 11.0075 11.2416C10.4355 10.6696 9.65974 10.3483 8.85083 10.3483C8.04192 10.3483 7.26614 10.6696 6.69415 11.2416L6.6701 11.2659C6.36146 10.7182 5.77434 10.3483 5.10083 10.3483C4.73926 10.3483 4.40259 10.4549 4.12053 10.6384Z" fill="currentColor"/>
  <path d="M5.10107 12.1484V17.1484M7.60107 13.3984V15.8984C7.60107 16.23 7.73277 16.5479 7.96719 16.7823C8.20161 17.0167 8.51955 17.1484 8.85107 17.1484C9.18259 17.1484 9.50054 17.0167 9.73496 16.7823C9.96938 16.5479 10.1011 16.23 10.1011 15.8984V13.3984C10.1011 13.0669 9.96938 12.749 9.73496 12.5146C9.50054 12.2801 9.18259 12.1484 8.85107 12.1484C8.51955 12.1484 8.20161 12.2801 7.96719 12.5146C7.73277 12.749 7.60107 13.0669 7.60107 13.3984Z" stroke="currentColor" stroke-width="1.2" stroke-linecap="round" stroke-linejoin="round"/>
  <rect x="17.563" y="14.6484" width="1.25" height="10" rx="0.625" transform="rotate(-180 17.563 14.6484)" fill="currentColor"/>
</svg>
