<svg width="21" height="21" viewBox="0 0 21 21" fill="none" xmlns="http://www.w3.org/2000/svg">
  <path d="M11.2266 12.1484V17.1484M13.7266 13.3984V15.8984C13.7266 16.23 13.8583 16.5479 14.0927 16.7823C14.3271 17.0167 14.645 17.1484 14.9766 17.1484C15.3081 17.1484 15.626 17.0167 15.8604 16.7823C16.0949 16.5479 16.2266 16.23 16.2266 15.8984V13.3984C16.2266 13.0669 16.0949 12.749 15.8604 12.5146C15.626 12.2801 15.3081 12.1484 14.9766 12.1484C14.645 12.1484 14.3271 12.2801 14.0927 12.5146C13.8583 12.749 13.7266 13.0669 13.7266 13.3984Z" stroke="currentColor" stroke-width="1.2" stroke-linecap="round" stroke-linejoin="round"/>
  <path fill-rule="evenodd" clip-rule="evenodd" d="M8.62007 3.56147L17.0038 8.47677C17.1728 8.5754 17.3125 8.71407 17.4095 8.87944C17.5064 9.04481 17.5574 9.23131 17.5574 9.42101C17.5574 9.6107 17.5064 9.7972 17.4095 9.96257C17.3125 10.1279 17.1728 10.2666 17.0038 10.3652L16.4148 10.7105C15.9763 10.476 15.4828 10.35 14.9764 10.35C14.1675 10.35 13.3917 10.6713 12.8197 11.2433L12.7956 11.2676C12.487 10.7199 11.8999 10.35 11.2264 10.35C10.2323 10.35 9.42637 11.1559 9.42637 12.15V14.8078L8.62007 15.2805C8.44426 15.3833 8.24315 15.4395 8.03728 15.4434C7.83141 15.4473 7.62814 15.3987 7.44823 15.3027C7.26832 15.2067 7.11821 15.0667 7.01321 14.8969C6.90822 14.7271 6.8521 14.5337 6.85059 14.3363V4.50571C6.8521 4.30835 6.90822 4.1149 7.01321 3.94512C7.11821 3.77534 7.26832 3.6353 7.44823 3.53929C7.62814 3.44329 7.83141 3.39476 8.03728 3.39865C8.24315 3.40255 8.44426 3.45873 8.62007 3.56147Z" fill="currentColor"/>
  <rect x="3.10059" y="4.64844" width="1.25" height="10" rx="0.625" fill="currentColor"/>
</svg>
