<svg width="21" height="21" viewBox="0 0 21 21" fill="none" xmlns="http://www.w3.org/2000/svg">
  <path fill-rule="evenodd" clip-rule="evenodd" d="M3.65493 11.617L12.0386 16.5323C12.2144 16.635 12.4155 16.6912 12.6214 16.6951C12.8273 16.699 13.0305 16.6505 13.2105 16.5545C13.3904 16.4585 13.5405 16.3184 13.6455 16.1486C13.7505 15.9788 13.8066 15.7854 13.8081 15.588L13.8081 5.75745C13.8066 5.56009 13.7505 5.36664 13.6455 5.19686C13.5405 5.02708 13.3904 4.88704 13.2105 4.79103C13.0306 4.69503 12.8273 4.6465 12.6214 4.65039C12.4155 4.65429 12.2144 4.71047 12.0386 4.81321L3.65493 9.7285C3.48589 9.82714 3.34616 9.96581 3.24921 10.1312C3.15225 10.2965 3.10132 10.483 3.10132 10.6727C3.10132 10.8624 3.15225 11.0489 3.24921 11.2143C3.34616 11.3797 3.48589 11.5183 3.65493 11.617ZM12.4116 15.182L12.4116 6.16348L4.72152 10.6727L12.4116 15.182Z" fill="currentColor"/>
  <path d="M12.4116 6.16348L12.4116 15.182L4.72152 10.6727L12.4116 6.16348Z" fill="currentColor"/>
  <rect x="17.564" y="15.8984" width="1.25" height="10" rx="0.625" transform="rotate(-180 17.564 15.8984)" fill="currentColor"/>
</svg>
