<svg width="22" height="22" viewBox="0 0 22 22" fill="none" xmlns="http://www.w3.org/2000/svg">
  <path d="M15.7417 0.34583L16.1671 1.65473C16.2991 2.05299 16.5225 2.41481 16.8195 2.71128C17.1164 3.00774 17.4786 3.23061 17.8771 3.36206L19.1861 3.78736L19.2118 3.79469C19.3128 3.83023 19.4002 3.89622 19.4621 3.98357C19.5239 4.07091 19.5572 4.1753 19.5572 4.28232C19.5572 4.38935 19.5239 4.49373 19.4621 4.58108C19.4002 4.66842 19.3128 4.73442 19.2118 4.76995L17.9027 5.19526C17.5042 5.3267 17.1421 5.54957 16.8451 5.84603C16.5482 6.1425 16.3248 6.50433 16.1928 6.90258L15.7674 8.21026C15.7319 8.31121 15.6659 8.39865 15.5785 8.4605C15.4911 8.52235 15.3867 8.55556 15.2797 8.55556C15.1727 8.55556 15.0683 8.52235 14.9809 8.4605C14.8936 8.39865 14.8276 8.31121 14.792 8.21026L14.3654 6.90258C14.2344 6.50344 14.0117 6.14054 13.7152 5.84299C13.4184 5.54485 13.0559 5.32049 12.6567 5.18792L11.3476 4.76262C11.2466 4.72708 11.1592 4.66109 11.0973 4.57374C11.0355 4.4864 11.0023 4.38201 11.0023 4.27499C11.0023 4.16796 11.0355 4.06358 11.0973 3.97623C11.1592 3.88889 11.2466 3.8229 11.3476 3.78736L12.6567 3.36206C13.0502 3.22705 13.407 3.00259 13.6991 2.70634C13.9911 2.41008 14.2104 2.05011 14.3398 1.65473L14.7651 0.347052C14.8004 0.245674 14.8664 0.157793 14.9539 0.095603C15.0414 0.0334133 15.1461 0 15.2534 0C15.3608 0 15.4655 0.0334133 15.553 0.095603C15.6405 0.157793 15.7064 0.244452 15.7417 0.34583ZM21.7371 10.0398L20.8008 9.7367C20.5167 9.64173 20.2586 9.48199 20.0469 9.27009C19.8351 9.05819 19.6756 8.79995 19.5809 8.51579L19.2754 7.58208C19.2501 7.50989 19.2029 7.44735 19.1405 7.4031C19.0781 7.35885 19.0035 7.33508 18.927 7.33508C18.8505 7.33508 18.7759 7.35885 18.7135 7.4031C18.6511 7.44735 18.604 7.50989 18.5787 7.58208L18.2755 8.51579C18.1826 8.79813 18.0257 9.0552 17.8171 9.26696C17.6084 9.47873 17.3537 9.63949 17.0728 9.7367L16.1378 10.0398C16.0661 10.0657 16.0042 10.113 15.9604 10.1753C15.9166 10.2376 15.8931 10.3119 15.8931 10.3881C15.8931 10.4643 15.9166 10.5386 15.9604 10.6009C16.0042 10.6632 16.0661 10.7105 16.1378 10.7364L17.0728 11.0407C17.3578 11.1357 17.6166 11.2959 17.8288 11.5085C18.041 11.7211 18.2006 11.9802 18.2951 12.2653L18.5982 13.199C18.6235 13.2712 18.6706 13.3337 18.733 13.378C18.7955 13.4222 18.8701 13.446 18.9466 13.446C19.0231 13.446 19.0977 13.4222 19.1601 13.378C19.2225 13.3337 19.2696 13.2712 19.2949 13.199L19.5993 12.2653C19.6941 11.981 19.8538 11.7227 20.0657 11.5108C20.2777 11.2989 20.536 11.1392 20.8203 11.0444L21.7554 10.7413C21.827 10.7154 21.889 10.6681 21.9327 10.6058C21.9765 10.5435 22 10.4692 22 10.393C22 10.3168 21.9765 10.2425 21.9327 10.1802C21.889 10.1179 21.827 10.0705 21.7554 10.0447L21.7371 10.0398ZM18.2988 14.5324C18.6927 14.6952 19.1319 14.7117 19.5369 14.5788C19.55 14.7075 19.5565 14.8379 19.5565 14.9699C19.5562 15.8798 19.2434 16.762 18.6705 17.469C18.0976 18.176 17.2993 18.6648 16.4091 18.8538L16.3639 19.0799C16.2226 19.784 15.8759 20.4305 15.3674 20.9377C14.8589 21.4449 14.2115 21.7901 13.507 21.9296C12.8024 22.0692 12.0723 21.9968 11.4089 21.7217C10.7454 21.4466 10.1784 20.9811 9.77941 20.3839C9.38045 20.9815 8.81327 21.4474 8.14956 21.7227C7.48585 21.998 6.7554 22.0704 6.05056 21.9307C5.34571 21.791 4.69811 21.4455 4.18961 20.9378C3.68111 20.4302 3.33455 19.7832 3.19372 19.0787L3.14849 18.8526C2.34158 18.682 1.60786 18.2643 1.04924 17.6576C0.490633 17.0508 0.134872 16.2852 0.0313816 15.4671C-0.0721085 14.649 0.0818115 13.8189 0.471759 13.0922C0.861707 12.3656 1.46832 11.7784 2.20733 11.4122C1.8972 11.1262 1.64967 10.7791 1.48032 10.3927C1.31098 10.0063 1.2235 9.58905 1.22339 9.16719V8.92521C1.22375 8.16297 1.48802 7.42436 1.97131 6.83486C2.45459 6.24537 3.12708 5.84135 3.87453 5.69144L4.37078 5.59367L4.52357 4.82617C4.63478 4.26778 4.90464 3.75329 5.30081 3.34432C5.69698 2.93535 6.20266 2.64924 6.75729 2.52028C7.31192 2.39131 7.89197 2.42495 8.42797 2.61716C8.96397 2.80938 9.43318 3.15201 9.77941 3.60404C9.88685 3.46398 10.0067 3.33391 10.1375 3.2154L10.0972 3.2704C9.88942 3.56371 9.77941 3.9059 9.77941 4.27377C9.77941 4.64163 9.88942 4.98383 10.0972 5.27714C10.1819 5.39691 10.2797 5.50486 10.3906 5.601V18.3662C10.3916 18.9638 10.6145 19.5398 11.0162 19.9824C11.4178 20.425 11.9696 20.7027 12.5644 20.7616C13.1592 20.8205 13.7547 20.6565 14.2354 20.3013C14.7161 19.9461 15.0478 19.425 15.166 18.8392L15.2919 18.2134C15.3156 18.0952 15.3738 17.9867 15.459 17.9014C15.5443 17.8162 15.6528 17.758 15.7711 17.7343L16.1268 17.6622C16.8234 17.5222 17.4387 17.1179 17.8439 16.5342C18.249 15.9505 18.4125 15.2327 18.3 14.5311M9.16827 18.3662V5.40668C9.16922 4.97444 9.00915 4.55734 8.71926 4.23668C8.42938 3.91602 8.03045 3.71479 7.60026 3.67222C7.17006 3.62965 6.73943 3.74878 6.3923 4.0064C6.04518 4.26403 5.80644 4.64167 5.72263 5.06571L5.4904 6.23163C5.46662 6.35 5.40831 6.45867 5.32281 6.54393C5.23732 6.6292 5.12849 6.68723 5.01004 6.7107L4.1141 6.89036C3.64384 6.98487 3.22077 7.23914 2.91666 7.61004C2.61255 7.98093 2.44615 8.4456 2.44568 8.92521V9.16719C2.44568 9.65338 2.63884 10.1197 2.98268 10.4635C3.32651 10.8072 3.79285 11.0004 4.27911 11.0004C4.4412 11.0004 4.59664 11.0648 4.71125 11.1794C4.82587 11.294 4.89025 11.4494 4.89025 11.6115C4.89025 11.7735 4.82587 11.9289 4.71125 12.0435C4.59664 12.1581 4.4412 12.2225 4.27911 12.2225H3.97109C3.29063 12.2245 2.6351 12.4788 2.13144 12.9363C1.62778 13.3938 1.31181 14.0219 1.24472 14.699C1.17763 15.3761 1.36419 16.0539 1.76827 16.6013C2.17235 17.1488 2.76522 17.5268 3.43206 17.6622L3.78775 17.7343C3.90597 17.758 4.01454 17.8162 4.0998 17.9014C4.18506 17.9867 4.24319 18.0952 4.26689 18.2134L4.39278 18.8392C4.51104 19.425 4.84267 19.9461 5.32337 20.3013C5.80408 20.6565 6.39958 20.8205 6.9944 20.7616C7.58923 20.7027 8.14097 20.425 8.54263 19.9824C8.9443 19.5398 9.16725 18.9638 9.16827 18.3662Z" fill="currentColor"/>
</svg>
