<svg width="20" height="20" viewBox="0 0 20 20" fill="none" xmlns="http://www.w3.org/2000/svg">
<path d="M5.00228 8.33333V8.34167M8.33561 8.33333V8.34167M11.6689 8.33333V8.34167M15.0023 8.33333V8.34167M5.00228 11.6667V11.675M15.0023 11.6667V11.675M8.33561 11.6667L11.6689 11.675M1.66895 6.66667C1.66895 6.22464 1.84454 5.80072 2.1571 5.48816C2.46966 5.17559 2.89358 5 3.33561 5H16.6689C17.111 5 17.5349 5.17559 17.8475 5.48816C18.16 5.80072 18.3356 6.22464 18.3356 6.66667V13.3333C18.3356 13.7754 18.16 14.1993 17.8475 14.5118C17.5349 14.8244 17.111 15 16.6689 15H3.33561C2.89358 15 2.46966 14.8244 2.1571 14.5118C1.84454 14.1993 1.66895 13.7754 1.66895 13.3333V6.66667Z" stroke="currentColor" stroke-width="1.6" stroke-linecap="round" stroke-linejoin="round"/>
</svg>
