<svg width="16" height="16" viewBox="0 0 16 16" fill="none" xmlns="http://www.w3.org/2000/svg">
<path d="M5.47039 10.5011L10.4704 5.50107M7.13706 3.00091L7.52289 2.55424C8.3044 1.77285 9.36431 1.33391 10.4694 1.33398C11.5746 1.33406 12.6344 1.77315 13.4158 2.55466C14.1972 3.33617 14.6362 4.39607 14.6361 5.50121C14.636 6.60635 14.1969 7.6662 13.4154 8.44759L12.9704 8.83426M8.80385 13.0011L8.47302 13.4461C7.68239 14.2279 6.61533 14.6664 5.50342 14.6664C4.39151 14.6664 3.32446 14.2279 2.53383 13.4461C2.14413 13.0608 1.83474 12.6019 1.62359 12.0962C1.41244 11.5905 1.30371 11.0479 1.30371 10.4998C1.30371 9.95179 1.41244 9.40919 1.62359 8.90346C1.83474 8.39773 2.14413 7.93891 2.53383 7.55357L2.9705 7.16774" stroke="currentColor" stroke-width="1.92043" stroke-linecap="round" stroke-linejoin="round"/>
</svg>
