<svg width="25" height="24" viewBox="0 0 25 24" fill="none" xmlns="http://www.w3.org/2000/svg">
  <path d="M9.71875 17C9.71875 17.7956 9.40268 18.5587 8.84007 19.1213C8.27746 19.6839 7.5144 20 6.71875 20C5.9231 20 5.16004 19.6839 4.59743 19.1213C4.03482 18.5587 3.71875 17.7956 3.71875 17C3.71875 16.2044 4.03482 15.4413 4.59743 14.8787C5.16004 14.3161 5.9231 14 6.71875 14C7.5144 14 8.27746 14.3161 8.84007 14.8787C9.40268 15.4413 9.71875 16.2044 9.71875 17ZM9.71875 17V4H19.7188V17M19.7188 17C19.7187 17.7956 19.4027 18.5587 18.8401 19.1213C18.2775 19.6839 17.5144 20 16.7188 20C15.9231 20 15.16 19.6839 14.5974 19.1213C14.0348 18.5587 13.7188 17.7956 13.7188 17C13.7188 16.2044 14.0348 15.4413 14.5974 14.8787C15.16 14.3161 15.9231 14 16.7188 14C17.5144 14 18.2775 14.3161 18.8401 14.8787C19.4027 15.4413 19.7187 16.2044 19.7188 17ZM9.71875 8H19.7188" stroke="currentColor" stroke-width="1.88" stroke-linecap="round" stroke-linejoin="round"/>
</svg>
