<svg width="16" height="16" viewBox="0 0 16 16" fill="none" xmlns="http://www.w3.org/2000/svg">
  <path d="M13.3329 7.61907C13.3329 6.48889 12.9977 5.3841 12.3698 4.44439C11.7419 3.50468 10.8495 2.77226 9.80535 2.33976C8.7612 1.90726 7.61225 1.7941 6.50378 2.01459C5.39532 2.23507 4.37713 2.77931 3.57797 3.57846C2.77882 4.37762 2.23458 5.39581 2.0141 6.50427C1.79361 7.61273 1.90677 8.76169 2.33927 9.80584C2.77177 10.85 3.50419 11.7424 4.4439 12.3703C5.38361 12.9982 6.48841 13.3334 7.61858 13.3334M2.28531 5.71431H12.952M2.28531 9.52383H7.61864M7.35052 1.90479C6.28089 3.61882 5.71382 5.59867 5.71382 7.61907C5.71382 9.63947 6.28089 11.6193 7.35052 13.3334M7.93604 1.90479C9.02747 3.65399 9.52334 5.63558 9.52334 7.61907M11.4281 13.3334V8.88891M11.4281 8.88891L13.3329 10.7937M11.4281 8.88891L9.52334 10.7937" stroke="currentColor" stroke-width="1.26984" stroke-linecap="round" stroke-linejoin="round"/>
</svg>
