<svg width="14" height="14" viewBox="0 0 14 14" fill="none" xmlns="http://www.w3.org/2000/svg">
  <path d="M14 10.9999L11 13.9999L10.3 13.2999L12.1 11.4999H7.5V10.4999H12.1L10.3 8.69986L11 7.99987L14 10.9999ZM9.7425 2.56286L5.2425 0.0628649C5.1683 0.0217138 5.08485 0.00012207 5 0.00012207C4.91515 0.00012207 4.8317 0.0217138 4.7575 0.0628649L0.2575 2.56286C0.179505 2.60612 0.1145 2.66945 0.069223 2.74629C0.0239462 2.82313 4.58622e-05 2.91068 4.24294e-10 2.99987V7.99987C-3.67114e-06 8.089 0.0238212 8.17652 0.0690075 8.25335C0.114194 8.33019 0.179098 8.39354 0.257 8.43686L4.757 10.9369C4.83311 10.9792 4.91896 11.0009 5.00604 10.9998C5.09312 10.9988 5.17842 10.975 5.25348 10.9309C5.32855 10.8867 5.39078 10.8237 5.43402 10.7481C5.47726 10.6725 5.5 10.587 5.5 10.4999V5.79387L9 3.84986V5.99987H10V2.99987C9.99995 2.91068 9.97605 2.82313 9.93078 2.74629C9.8855 2.66945 9.82049 2.60612 9.7425 2.56286ZM5 1.07186L8.4705 2.99987L5 4.92787L1.53 2.99987L5 1.07186ZM1 7.70536V3.84986L4.5 5.79487V9.64986L1 7.70536Z" fill="currentColor"/>
</svg>
