<svg width="20" height="20" viewBox="0 0 20 20" fill="none" xmlns="http://www.w3.org/2000/svg">
<path d="M11.6683 3.33203V6.66536H6.66829V3.33203M5.00163 3.33203H13.335L16.6683 6.66536V14.9987C16.6683 15.4407 16.4927 15.8646 16.1801 16.1772C15.8676 16.4898 15.4437 16.6654 15.0016 16.6654H5.00163C4.5596 16.6654 4.13568 16.4898 3.82312 16.1772C3.51056 15.8646 3.33496 15.4407 3.33496 14.9987V4.9987C3.33496 4.55667 3.51056 4.13275 3.82312 3.82019C4.13568 3.50763 4.5596 3.33203 5.00163 3.33203ZM8.33496 11.6654C8.33496 12.1074 8.51056 12.5313 8.82312 12.8439C9.13568 13.1564 9.5596 13.332 10.0016 13.332C10.4437 13.332 10.8676 13.1564 11.1801 12.8439C11.4927 12.5313 11.6683 12.1074 11.6683 11.6654C11.6683 11.2233 11.4927 10.7994 11.1801 10.4869C10.8676 10.1743 10.4437 9.9987 10.0016 9.9987C9.5596 9.9987 9.13568 10.1743 8.82312 10.4869C8.51056 10.7994 8.33496 11.2233 8.33496 11.6654Z" stroke="currentColor" stroke-width="1.6" stroke-linecap="round" stroke-linejoin="round"/>
</svg>
