<svg width="28" height="29" viewBox="0 0 28 29" fill="none" xmlns="http://www.w3.org/2000/svg">
<path fill-rule="evenodd" clip-rule="evenodd" d="M12.2946 2.9091e-08C10.334 0.000175274 8.40176 0.492266 6.65923 1.43522C4.91671 2.37817 3.41439 3.74463 2.27761 5.42061C1.14083 7.09659 0.402555 9.03347 0.124382 11.0697C-0.153792 13.1059 0.0362017 15.1824 0.678511 17.1258C1.32082 19.0693 2.39682 20.8235 3.81674 22.242C5.23666 23.6605 6.95932 24.7022 8.841 25.2801C10.7227 25.8581 12.7088 25.9555 14.6337 25.5644C16.5586 25.1732 18.3664 24.3048 19.9063 23.0316L25.1891 28.574C25.462 28.8504 25.8274 29.0034 26.2066 28.9999C26.5859 28.9965 26.9487 28.8369 27.2169 28.5555C27.4851 28.2741 27.6373 27.8935 27.6406 27.4956C27.6439 27.0976 27.4981 26.7143 27.2346 26.4281L21.9518 20.8857C23.381 18.9835 24.2708 16.6976 24.5195 14.2896C24.7683 11.8816 24.3658 9.44881 23.3581 7.2696C22.3505 5.09039 20.7785 3.25283 18.8219 1.9672C16.8653 0.681579 14.6033 -0.000162604 12.2946 2.9091e-08ZM2.89205 12.8999C2.89205 10.2836 3.88267 7.77452 5.646 5.92454C7.40932 4.07457 9.8009 3.03526 12.2946 3.03526C14.7883 3.03526 17.1799 4.07457 18.9432 5.92454C20.7066 7.77452 21.6972 10.2836 21.6972 12.8999C21.6972 15.5161 20.7066 18.0252 18.9432 19.8752C17.1799 21.7252 14.7883 22.7645 12.2946 22.7645C9.8009 22.7645 7.40932 21.7252 5.646 19.8752C3.88267 18.0252 2.89205 15.5161 2.89205 12.8999Z" fill="currentColor"/>
</svg>
