<svg width="18" height="18" viewBox="0 0 18 18" fill="none" xmlns="http://www.w3.org/2000/svg">
<path d="M9 3C9 3.53043 9.21071 4.03914 9.58579 4.41421C9.96086 4.78929 10.4696 5 11 5C11.5304 5 12.0391 4.78929 12.4142 4.41421C12.7893 4.03914 13 3.53043 13 3M9 3C9 2.46957 9.21071 1.96086 9.58579 1.58579C9.96086 1.21071 10.4696 1 11 1C11.5304 1 12.0391 1.21071 12.4142 1.58579C12.7893 1.96086 13 2.46957 13 3M9 3H1M13 3H17M3 9C3 9.53043 3.21071 10.0391 3.58579 10.4142C3.96086 10.7893 4.46957 11 5 11C5.53043 11 6.03914 10.7893 6.41421 10.4142C6.78929 10.0391 7 9.53043 7 9M3 9C3 8.46957 3.21071 7.96086 3.58579 7.58579C3.96086 7.21071 4.46957 7 5 7C5.53043 7 6.03914 7.21071 6.41421 7.58579C6.78929 7.96086 7 8.46957 7 9M3 9H1M7 9H17M12 15C12 15.5304 12.2107 16.0391 12.5858 16.4142C12.9609 16.7893 13.4696 17 14 17C14.5304 17 15.0391 16.7893 15.4142 16.4142C15.7893 16.0391 16 15.5304 16 15M12 15C12 14.4696 12.2107 13.9609 12.5858 13.5858C12.9609 13.2107 13.4696 13 14 13C14.5304 13 15.0391 13.2107 15.4142 13.5858C15.7893 13.9609 16 14.4696 16 15M12 15H1M16 15H17" stroke="currentColor" stroke-linecap="round" stroke-linejoin="round"/>
</svg>
