<svg width="16" height="16" viewBox="0 0 16 16" fill="none" xmlns="http://www.w3.org/2000/svg">
<path d="M12 15C11.4444 15 10.9722 14.7958 10.5833 14.3875C10.1944 13.9792 10 13.4833 10 12.9C10 12.8183 10.0056 12.7336 10.0167 12.6459C10.0278 12.5582 10.0444 12.4795 10.0667 12.41L5.36667 9.54C5.17778 9.715 4.96667 9.8522 4.73333 9.9516C4.5 10.051 4.25556 10.1005 4 10.1C3.44444 10.1 2.97222 9.89583 2.58333 9.4875C2.19444 9.07917 2 8.58333 2 8C2 7.41667 2.19444 6.92083 2.58333 6.5125C2.97222 6.10417 3.44444 5.9 4 5.9C4.25556 5.9 4.5 5.9497 4.73333 6.0491C4.96667 6.1485 5.17778 6.28547 5.36667 6.46L10.0667 3.59C10.0444 3.52 10.0278 3.44137 10.0167 3.3541C10.0056 3.26683 10 3.18213 10 3.1C10 2.51667 10.1944 2.02083 10.5833 1.6125C10.9722 1.20417 11.4444 1 12 1C12.5556 1 13.0278 1.20417 13.4167 1.6125C13.8056 2.02083 14 2.51667 14 3.1C14 3.68333 13.8056 4.17917 13.4167 4.5875C13.0278 4.99583 12.5556 5.2 12 5.2C11.7444 5.2 11.5 5.15053 11.2667 5.0516C11.0333 4.95267 10.8222 4.81547 10.6333 4.64L5.93333 7.51C5.95556 7.58 5.97222 7.65887 5.98333 7.7466C5.99444 7.83433 6 7.9188 6 8C6 8.08167 5.99444 8.16637 5.98333 8.2541C5.97222 8.34183 5.95556 8.42047 5.93333 8.49L10.6333 11.36C10.8222 11.185 11.0333 11.048 11.2667 10.9491C11.5 10.8502 11.7444 10.8005 12 10.8C12.5556 10.8 13.0278 11.0042 13.4167 11.4125C13.8056 11.8208 14 12.3167 14 12.9C14 13.4833 13.8056 13.9792 13.4167 14.3875C13.0278 14.7958 12.5556 15 12 15ZM12 3.8C12.1889 3.8 12.3473 3.73303 12.4753 3.5991C12.6033 3.46517 12.6671 3.2988 12.6667 3.1C12.6667 2.90167 12.6027 2.73553 12.4747 2.6016C12.3467 2.46767 12.1884 2.40047 12 2.4C11.8111 2.4 11.6529 2.4672 11.5253 2.6016C11.3978 2.736 11.3338 2.90213 11.3333 3.1C11.3333 3.29833 11.3973 3.4647 11.5253 3.5991C11.6533 3.7335 11.8116 3.80047 12 3.8ZM4 8.7C4.18889 8.7 4.34733 8.6328 4.47533 8.4984C4.60333 8.364 4.66711 8.19787 4.66667 8C4.66667 7.80167 4.60267 7.63553 4.47467 7.5016C4.34667 7.36767 4.18844 7.30047 4 7.3C3.81111 7.3 3.65289 7.3672 3.52533 7.5016C3.39778 7.636 3.33378 7.80213 3.33333 8C3.33333 8.19833 3.39733 8.3647 3.52533 8.4991C3.65333 8.6335 3.81156 8.70047 4 8.7ZM12 13.6C12.1889 13.6 12.3473 13.5328 12.4753 13.3984C12.6033 13.264 12.6671 13.0979 12.6667 12.9C12.6667 12.7017 12.6027 12.5355 12.4747 12.4016C12.3467 12.2677 12.1884 12.2005 12 12.2C11.8111 12.2 11.6529 12.2672 11.5253 12.4016C11.3978 12.536 11.3338 12.7021 11.3333 12.9C11.3333 13.0983 11.3973 13.2647 11.5253 13.3991C11.6533 13.5335 11.8116 13.6005 12 13.6Z" fill="currentColor"/>
</svg>
