<svg width="24" height="24" viewBox="0 0 24 24" fill="none" xmlns="http://www.w3.org/2000/svg">
  <path d="M4 4H10V10H4V4Z" stroke="currentColor" stroke-width="1.62319" stroke-linecap="round" stroke-linejoin="round"/>
  <path d="M14 4H20V10H14V4Z" stroke="currentColor" stroke-width="1.62319" stroke-linecap="round" stroke-linejoin="round"/>
  <path d="M4 14H10V20H4V14Z" stroke="currentColor" stroke-width="1.62319" stroke-linecap="round" stroke-linejoin="round"/>
  <path d="M14 17C14 17.7957 14.3161 18.5587 14.8787 19.1213C15.4413 19.6839 16.2044 20 17 20C17.7957 20 18.5587 19.6839 19.1213 19.1213C19.6839 18.5587 20 17.7957 20 17C20 16.2044 19.6839 15.4413 19.1213 14.8787C18.5587 14.3161 17.7957 14 17 14C16.2044 14 15.4413 14.3161 14.8787 14.8787C14.3161 15.4413 14 16.2044 14 17Z" stroke="currentColor" stroke-width="1.62319" stroke-linecap="round" stroke-linejoin="round"/>
</svg>
