<svg width="27" height="27" viewBox="0 0 27 27" fill="none" xmlns="http://www.w3.org/2000/svg">
<path d="M10.5 8.64V17.36C10.5 17.86 11.048 18.166 11.474 17.906L17.992 13.922C18.1501 13.8256 18.2807 13.6901 18.3713 13.5287C18.462 13.3672 18.5096 13.1852 18.5096 13C18.5096 12.8148 18.462 12.6328 18.3713 12.4713C18.2807 12.3099 18.1501 12.1744 17.992 12.078L11.472 8.096C11.375 8.03716 11.2642 8.00515 11.1507 8.00324C11.0373 8.00134 10.9255 8.02961 10.8266 8.08516C10.7277 8.14071 10.6453 8.22155 10.5879 8.31939C10.5306 8.41724 10.5002 8.52657 10.5 8.64ZM6.5 3C5.17392 3 3.90215 3.52678 2.96447 4.46447C2.02678 5.40215 1.5 6.67392 1.5 8V18C1.5 19.3261 2.02678 20.5979 2.96447 21.5355C3.90215 22.4732 5.17392 23 6.5 23H20.5C21.8261 23 23.0979 22.4732 24.0355 21.5355C24.9732 20.5979 25.5 19.3261 25.5 18V8C25.5 6.67392 24.9732 5.40215 24.0355 4.46447C23.0979 3.52678 21.8261 3 20.5 3H6.5ZM3.5 8C3.5 7.20435 3.81607 6.44129 4.37868 5.87868C4.94129 5.31607 5.70435 5 6.5 5H20.5C21.2956 5 22.0587 5.31607 22.6213 5.87868C23.1839 6.44129 23.5 7.20435 23.5 8V18C23.5 18.7956 23.1839 19.5587 22.6213 20.1213C22.0587 20.6839 21.2956 21 20.5 21H6.5C5.70435 21 4.94129 20.6839 4.37868 20.1213C3.81607 19.5587 3.5 18.7956 3.5 18V8Z" fill="currentColor"/>
</svg>
