<svg width="21" height="20" viewBox="0 0 21 20" fill="none" xmlns="http://www.w3.org/2000/svg">
  <path d="M13.9475 0.0859375H6.44675C2.94004 0.0859375 0.0869141 2.93907 0.0869141 6.446V13.5522C0.0869141 17.0589 2.94004 19.912 6.44675 19.912H13.9475C17.4544 19.9118 20.3075 17.0589 20.3075 13.552V6.446C20.3075 2.93907 17.4544 0.0859375 13.9475 0.0859375ZM18.4203 5.5473H15.3319L13.2932 1.88333H13.9475C16.1556 1.88333 18.0017 3.46053 18.4203 5.5473ZM9.04869 5.5473L7.01023 1.88333H11.2366L13.275 5.54708L9.04869 5.5473ZM5.07152 2.09609L6.99158 5.54708H1.97417C2.30197 3.91325 3.50487 2.59262 5.07152 2.09609ZM13.9475 18.1144H6.44675C3.93108 18.1144 1.8843 16.0679 1.8843 13.552V7.34469H18.5101V13.5522C18.5101 16.0679 16.4634 18.1144 13.9475 18.1144Z" fill="currentColor"/>
  <path d="M12.751 11.5648L8.83941 9.47426C8.30783 9.19005 7.66504 9.57536 7.66504 10.1782V14.3596C7.66504 14.9624 8.30783 15.3477 8.83941 15.0635L12.751 12.9729C13.3136 12.672 13.3136 11.8657 12.751 11.5648Z" fill="currentColor"/>
</svg>
