<svg width="25" height="24" viewBox="0 0 25 24" fill="none" xmlns="http://www.w3.org/2000/svg">
<rect x="1.10294" y="1.10294" width="22.7941" height="21.7941" rx="4.77941" stroke="#BDBDBD" stroke-width="2.20588"/>
<path d="M8.82349 16.7165V7.57414C8.8237 7.47188 8.85583 7.37331 8.91659 7.2851C8.97735 7.19689 9.06455 7.12401 9.16927 7.07393C9.27398 7.02385 9.39245 6.99836 9.51254 7.00008C9.63263 7.0018 9.75002 7.03066 9.8527 7.0837L17.099 11.1024C17.2663 11.1893 17.4047 11.3114 17.5006 11.457C17.5966 11.6025 17.647 11.7666 17.647 11.9336C17.647 12.1005 17.5966 12.2646 17.5006 12.4102C17.4047 12.5557 17.2663 12.6778 17.099 12.7648L9.85482 17.2088C9.40374 17.4432 8.82349 17.1673 8.82349 16.7165Z" fill="#BDBDBD"/>
</svg>
