<svg width="23" height="23" viewBox="0 0 23 23" fill="none" xmlns="http://www.w3.org/2000/svg">
  <path d="M19.25 21.25L15.0813 17.0813" stroke="currentColor" stroke-width="2" stroke-linecap="round" stroke-linejoin="round"/>
  <path d="M9.66699 3C10.2751 3.00002 10.8687 3.06244 11.4414 3.18164L10.8916 3.35938L10.874 3.36426L10.8574 3.37012C10.4653 3.50639 10.1223 3.76105 9.87793 4.10156C9.6863 4.36869 9.56301 4.67842 9.51855 5.00293C5.90521 5.08189 3 8.03471 3 11.667C3.00018 15.3487 5.9852 18.333 9.66699 18.333C12.789 18.3329 15.4082 16.1865 16.1328 13.2891L16.6797 13.4648V13.4658C16.7492 13.4887 16.8112 13.5266 16.8604 13.5752C16.9091 13.6235 16.9442 13.681 16.9648 13.7422L17.2695 14.668L17.2744 14.6846L17.2803 14.7012C17.3479 14.8917 17.446 15.0679 17.5684 15.2246C16.2104 18.2359 13.1848 20.3329 9.66699 20.333C4.88063 20.333 1.00018 16.4533 1 11.667C1 6.88052 4.88052 3 9.66699 3ZM17.5537 10.5449C17.4906 10.5845 17.425 10.6203 17.3574 10.6523C17.29 10.6843 17.2204 10.7121 17.1494 10.7363C17.2206 10.712 17.2899 10.6834 17.3574 10.6514C17.4248 10.6194 17.4906 10.5842 17.5537 10.5449Z" fill="currentColor"/>
  <path d="M15.8007 1.34583L16.2316 2.65475C16.3653 3.05301 16.5916 3.41484 16.8924 3.71131C17.1932 4.00777 17.56 4.23064 17.9637 4.36209L19.2897 4.7874L19.3157 4.79473C19.4179 4.83027 19.5065 4.89627 19.5692 4.98361C19.6318 5.07095 19.6655 5.17534 19.6655 5.28237C19.6655 5.3894 19.6318 5.49378 19.5692 5.58113C19.5065 5.66847 19.4179 5.73447 19.3157 5.77001L17.9897 6.19531C17.586 6.32676 17.2192 6.54963 16.9184 6.8461C16.6176 7.14257 16.3913 7.5044 16.2576 7.90265L15.8267 9.21035C15.7907 9.31131 15.7239 9.39874 15.6354 9.46059C15.5469 9.52244 15.4412 9.55566 15.3327 9.55566C15.2243 9.55566 15.1186 9.52244 15.0301 9.46059C14.9416 9.39874 14.8747 9.31131 14.8387 9.21035L14.4067 7.90265C14.2529 7.44006 13.9747 7.02736 13.6019 6.70862C13.3309 6.47657 13.0162 6.29964 12.6758 6.18798L11.3498 5.76267C11.2475 5.72714 11.159 5.66114 11.0963 5.5738C11.0337 5.48645 11 5.38206 11 5.27504C11 5.16801 11.0337 5.06362 11.0963 4.97628C11.159 4.88893 11.2475 4.82294 11.3498 4.7874L12.6758 4.36209C13.0744 4.22709 13.4358 4.00263 13.7317 3.70637C14.0275 3.41011 14.2496 3.05013 14.3807 2.65475L14.8115 1.34706C14.8472 1.24568 14.9141 1.15779 15.0027 1.0956C15.0913 1.03341 15.1974 1 15.3061 1C15.4149 1 15.5209 1.03341 15.6095 1.0956C15.6982 1.15779 15.765 1.24568 15.8007 1.34706M21.8736 11.0399L20.9252 10.7368C20.6375 10.642 20.3762 10.4824 20.1617 10.2707C19.9473 10.059 19.7857 9.80105 19.6896 9.51711L19.38 8.58217C19.3544 8.50998 19.3067 8.44743 19.2435 8.40318C19.1803 8.35893 19.1047 8.33516 19.0272 8.33516C18.9497 8.33516 18.8741 8.35893 18.8109 8.40318C18.7477 8.44743 18.7 8.50998 18.6743 8.58217L18.3673 9.51711C18.273 9.79923 18.114 10.056 17.9027 10.2676C17.6914 10.4791 17.4334 10.6397 17.149 10.7368L16.2019 11.0399C16.1474 11.0591 16.0981 11.0904 16.0579 11.1315C16.0177 11.1726 15.9877 11.2223 15.9702 11.2767C15.9527 11.3312 15.9482 11.3889 15.957 11.4453C15.9658 11.5017 15.9878 11.5554 16.0211 11.6021C16.0657 11.6632 16.1288 11.7121 16.2019 11.7365L17.149 12.0408C17.4376 12.1359 17.6998 12.296 17.9148 12.5086C18.1297 12.7212 18.2914 12.9803 18.3871 13.2654L18.6941 14.1992C18.7198 14.2713 18.7675 14.3339 18.8307 14.3781C18.8939 14.4224 18.9695 14.4462 19.047 14.4462C19.1245 14.4462 19.2001 14.4224 19.2633 14.3781C19.3265 14.3339 19.3742 14.2713 19.3999 14.1992L19.7081 13.2654C19.8042 12.9811 19.9659 12.7228 20.1806 12.5109C20.3953 12.299 20.657 12.1393 20.945 12.0445L21.8921 11.7414C21.9653 11.7161 22.0286 11.669 22.0734 11.6066C22.1183 11.5442 22.1424 11.4696 22.1424 11.3931C22.1424 11.3166 22.1183 11.242 22.0734 11.1796C22.0286 11.1172 21.9653 11.0701 21.8921 11.0448L21.8736 11.0399Z" fill="currentColor"/>
</svg>
