<svg width="75" height="70" viewBox="0 0 75 70" fill="none" xmlns="http://www.w3.org/2000/svg">
  <path fill-rule="evenodd" clip-rule="evenodd" d="M37.3729 0C31.2075 0.0193131 25.2523 2.24063 20.5831 6.26267C17.0047 9.34267 14.4119 13.356 13.7439 17.3833C5.91426 19.11 0 25.9233 0 34.1507C0 43.708 7.97911 51.3333 17.6634 51.3333H35.0371V26.6327L25.0118 36.652C24.5732 37.0901 23.9783 37.3363 23.358 37.3363C22.7378 37.3363 22.1429 37.0901 21.7043 36.652C21.2657 36.2139 21.0193 35.6196 21.0193 35C21.0193 34.3804 21.2657 33.7861 21.7043 33.348L35.7191 19.348C35.9361 19.1307 36.1939 18.9583 36.4776 18.8407C36.7614 18.723 37.0656 18.6625 37.3729 18.6625C37.6801 18.6625 37.9843 18.723 38.2681 18.8407C38.5519 18.9583 38.8097 19.1307 39.0266 19.348L53.0415 33.348C53.4801 33.7861 53.7265 34.3804 53.7265 35C53.7265 35.6196 53.4801 36.2139 53.0415 36.652C52.6029 37.0901 52.008 37.3363 51.3877 37.3363C50.7674 37.3363 50.1726 37.0901 49.734 36.652L39.7087 26.6327V51.3333H59.2734C67.7477 51.3333 74.7458 44.66 74.7458 36.274C74.7458 28.6393 68.9436 22.4187 61.5064 21.3687C60.3712 9.32867 49.9395 0 37.3729 0ZM35.0371 67.6667V51.3333H39.7087V67.6667C39.7087 68.2855 39.4626 68.879 39.0245 69.3166C38.5865 69.7542 37.9924 70 37.3729 70C36.7534 70 36.1593 69.7542 35.7212 69.3166C35.2832 68.879 35.0371 68.2855 35.0371 67.6667Z" fill="currentColor"/>
</svg>
