<svg width="16" height="16" viewBox="0 0 16 16" fill="none" xmlns="http://www.w3.org/2000/svg">
  <path d="M7.66667 13.3333H3.33333C2.97971 13.3333 2.64057 13.1928 2.39052 12.9428C2.14048 12.6928 2 12.3536 2 12V5.99999C2 5.64637 2.14048 5.30723 2.39052 5.05718C2.64057 4.80713 2.97971 4.66666 3.33333 4.66666H4C4.35362 4.66666 4.69276 4.52618 4.94281 4.27613C5.19286 4.02608 5.33333 3.68695 5.33333 3.33332C5.33333 3.15651 5.40357 2.98694 5.5286 2.86192C5.65362 2.73689 5.82319 2.66666 6 2.66666H10C10.1768 2.66666 10.3464 2.73689 10.4714 2.86192C10.5964 2.98694 10.6667 3.15651 10.6667 3.33332C10.6667 3.68695 10.8071 4.02608 11.0572 4.27613C11.3072 4.52618 11.6464 4.66666 12 4.66666H12.6667C13.0203 4.66666 13.3594 4.80713 13.6095 5.05718C13.8595 5.30723 14 5.64637 14 5.99999V7.66666" stroke="currentColor" stroke-width="1.33333" stroke-linecap="round" stroke-linejoin="round"/>
  <path d="M9.83829 7.87598C9.70318 7.56206 9.48988 7.288 9.21875 7.07995C8.94761 6.8719 8.62769 6.7368 8.2895 6.68754C7.95131 6.63828 7.60613 6.6765 7.28692 6.79856C6.9677 6.92063 6.68508 7.12245 6.46604 7.38478C6.24699 7.64711 6.09882 7.9612 6.03567 8.29707C5.97251 8.63295 5.99648 8.9794 6.10528 9.30338C6.21408 9.62736 6.40409 9.91805 6.65718 10.1477C6.91026 10.3774 7.21797 10.5384 7.55096 10.6153M13.467 13.466L14.667 14.666M10.0003 11.9993C10.0003 12.5297 10.211 13.0385 10.5861 13.4135C10.9612 13.7886 11.4699 13.9993 12.0003 13.9993C12.5307 13.9993 13.0394 13.7886 13.4145 13.4135C13.7896 13.0385 14.0003 12.5297 14.0003 11.9993C14.0003 11.4689 13.7896 10.9602 13.4145 10.5851C13.0394 10.21 12.5307 9.99931 12.0003 9.99931C11.4699 9.99931 10.9612 10.21 10.5861 10.5851C10.211 10.9602 10.0003 11.4689 10.0003 11.9993Z" stroke="currentColor" stroke-width="1.33333" stroke-linecap="round" stroke-linejoin="round"/>
</svg>
