<svg width="21" height="23" viewBox="0 0 21 23" fill="none" xmlns="http://www.w3.org/2000/svg">
  <path d="M14.2441 9.05683L14.675 10.3658C14.8087 10.764 15.035 11.1258 15.3358 11.4223C15.6365 11.7188 16.0034 11.9416 16.407 12.0731L17.733 12.4984L17.759 12.5057C17.8613 12.5413 17.9499 12.6073 18.0125 12.6946C18.0752 12.782 18.1088 12.8863 18.1088 12.9934C18.1088 13.1004 18.0752 13.2048 18.0125 13.2921C17.9499 13.3795 17.8613 13.4455 17.759 13.481L16.433 13.9063C16.0294 14.0378 15.6625 14.2606 15.3618 14.5571C15.061 14.8536 14.8347 15.2154 14.701 15.6137L14.2701 16.9213C14.2341 17.0223 14.1672 17.1097 14.0788 17.1716C13.9903 17.2334 13.8845 17.2667 13.7761 17.2667C13.6677 17.2667 13.5619 17.2334 13.4734 17.1716C13.385 17.1097 13.3181 17.0223 13.2821 16.9213L12.85 15.6137C12.6962 15.1511 12.4181 14.7384 12.0453 14.4196C11.7743 14.1876 11.4596 14.0106 11.1192 13.899L9.79317 13.4737C9.6909 13.4381 9.60233 13.3721 9.53967 13.2848C9.47701 13.1974 9.44336 13.0931 9.44336 12.986C9.44336 12.879 9.47701 12.7746 9.53967 12.6873C9.60233 12.5999 9.6909 12.5339 9.79317 12.4984L11.1192 12.0731C11.5178 11.9381 11.8792 11.7136 12.175 11.4174C12.4709 11.1211 12.693 10.7611 12.824 10.3658L13.2549 9.05805C13.2906 8.95668 13.3574 8.86879 13.4461 8.8066C13.5347 8.74441 13.6407 8.711 13.7495 8.711C13.8582 8.711 13.9643 8.74441 14.0529 8.8066C14.1415 8.86879 14.2084 8.95668 14.2441 9.05805M20.3169 18.7509L19.3685 18.4478C19.0809 18.353 18.8195 18.1934 18.6051 17.9817C18.3907 17.77 18.229 17.512 18.1329 17.2281L17.8234 16.2932C17.7978 16.221 17.7501 16.1584 17.6868 16.1142C17.6236 16.0699 17.548 16.0462 17.4706 16.0462C17.3931 16.0462 17.3175 16.0699 17.2543 16.1142C17.1911 16.1584 17.1433 16.221 17.1177 16.2932L16.8107 17.2281C16.7163 17.5102 16.5573 17.767 16.346 17.9786C16.1347 18.1901 15.8768 18.3507 15.5924 18.4478L14.6452 18.7509C14.5907 18.7701 14.5415 18.8014 14.5013 18.8425C14.4611 18.8836 14.431 18.9333 14.4135 18.9877C14.396 19.0422 14.3915 19.0999 14.4004 19.1563C14.4092 19.2127 14.4311 19.2664 14.4645 19.3131C14.509 19.3742 14.5722 19.4231 14.6452 19.4475L15.5924 19.7518C15.881 19.8469 16.1432 20.007 16.3581 20.2196C16.5731 20.4322 16.7348 20.6913 16.8305 20.9764L17.1375 21.9102C17.1631 21.9823 17.2109 22.0449 17.2741 22.0891C17.3373 22.1334 17.4129 22.1572 17.4904 22.1572C17.5679 22.1572 17.6434 22.1334 17.7066 22.0891C17.7699 22.0449 17.8176 21.9823 17.8432 21.9102L18.1515 20.9764C18.2475 20.6921 18.4093 20.4338 18.624 20.2219C18.8387 20.01 19.1003 19.8503 19.3884 19.7555L20.3355 19.4524C20.4086 19.4271 20.472 19.38 20.5168 19.3176C20.5616 19.2552 20.5857 19.1806 20.5857 19.1041C20.5857 19.0276 20.5616 18.953 20.5168 18.8906C20.472 18.8282 20.4086 18.7811 20.3355 18.7558L20.3169 18.7509Z" fill="currentColor"/>
  <path d="M8.89941 11.6894L8.76562 11.8232C8.45627 12.1334 8.28293 12.5514 8.2832 12.9863V13.0722H2.39844C2.15306 13.0722 1.91738 13.1679 1.74414 13.3388C1.57091 13.5098 1.47363 13.742 1.47363 13.9833V14.5175C1.47365 15.3506 1.63396 16.2597 2.44043 16.9872C3.27117 17.7346 4.91985 18.4111 8.20508 18.4111C10.1181 18.411 11.4765 18.1815 12.4424 17.8408L12.4922 17.8232L12.5273 17.8622C12.7407 18.0982 13.0187 18.2686 13.3281 18.3515L13.4189 18.3759L13.3789 18.4609C13.3032 18.6214 13.2564 18.7942 13.2412 18.9706L13.2373 19.0185L13.1924 19.037C12.0614 19.4843 10.5637 19.7546 8.59277 19.7851V19.79H7.81641V19.7851C4.61542 19.7347 2.65981 19.0505 1.50098 18.0078C0.424988 17.0367 0.14417 15.8556 0.0908203 14.9042H0.0791016V13.9824C0.0791016 12.7171 1.11795 11.6923 2.39844 11.6923H6.26953V11.6894H8.89941ZM8.20508 0.0790405C8.38956 0.0791145 8.56645 0.151208 8.69727 0.280212C8.8282 0.409465 8.90234 0.585257 8.90234 0.768494V1.30072H12.5381C13.0511 1.30072 13.5432 1.50196 13.9062 1.86029C14.2694 2.21874 14.4736 2.70546 14.4736 3.21283V7.72552L14.3672 7.68451C13.9881 7.53685 13.5673 7.53036 13.1836 7.66595L13.0781 7.70306V3.21283C13.0781 3.07193 13.0221 2.93582 12.9209 2.83588C12.8196 2.73596 12.6817 2.67963 12.5381 2.67963H3.87109C3.72775 2.67973 3.59041 2.73623 3.48926 2.83588C3.38801 2.93582 3.33105 3.07193 3.33105 3.21283V8.1015C3.33116 8.24226 3.3881 8.37762 3.48926 8.47748C3.59042 8.57722 3.72768 8.63362 3.87109 8.63373H12.1768L12.1426 8.73724L11.7383 9.95892L11.7207 10.0126H3.87109C3.35818 10.0125 2.86593 9.81139 2.50293 9.45306C2.14003 9.09472 1.93565 8.60863 1.93555 8.1015V3.21283C1.93555 2.70549 2.13985 2.21873 2.50293 1.86029C2.86593 1.50197 3.35818 1.30082 3.87109 1.30072H7.50684V0.768494C7.50684 0.585257 7.58098 0.409465 7.71191 0.280212C7.84282 0.151013 8.0204 0.0790405 8.20508 0.0790405ZM5.72852 4.35638C6.07726 4.35638 6.41221 4.49262 6.65918 4.73627C6.90621 4.98012 7.04492 5.31186 7.04492 5.65717C7.04483 6.00235 6.90613 6.33332 6.65918 6.57709C6.41219 6.82083 6.07733 6.95795 5.72852 6.95795C5.37969 6.95792 5.04482 6.82087 4.79785 6.57709C4.5509 6.33332 4.4122 6.00235 4.41211 5.65717C4.41211 5.31186 4.55082 4.98012 4.79785 4.73627C5.04481 4.49258 5.37976 4.35641 5.72852 4.35638ZM10.6807 4.35638C11.0294 4.35638 11.3644 4.49268 11.6113 4.73627C11.8584 4.98012 11.998 5.31186 11.998 5.65717C11.998 6.00235 11.8583 6.33332 11.6113 6.57709C11.3644 6.82076 11.0294 6.95795 10.6807 6.95795C10.3319 6.95787 9.99692 6.82083 9.75 6.57709C9.5031 6.33332 9.36435 6.00231 9.36426 5.65717C9.36426 5.31186 9.50297 4.98012 9.75 4.73627C9.99692 4.49256 10.3319 4.35646 10.6807 4.35638Z" fill="currentColor" stroke="currentColor" stroke-width="0.157143"/>
</svg>
