<svg width="15" height="12" viewBox="0 0 15 12" fill="none" xmlns="http://www.w3.org/2000/svg">
  <path d="M4.91475 11.125H4.05965C3.94972 11.125 3.8548 11.0875 3.7749 11.0126C3.69557 10.9377 3.6559 10.8442 3.6559 10.7321C3.6559 10.6305 3.69925 10.543 3.78595 10.4697C3.87265 10.3964 3.97097 10.3595 4.0809 10.3589H4.9139C5.0669 10.3589 5.19242 10.3136 5.29045 10.223C5.38849 10.1324 5.4375 10.0166 5.4375 9.87571V1.39471C5.4375 1.25329 5.38849 1.13726 5.29045 1.04664C5.19242 0.956024 5.06719 0.910714 4.91475 0.910714H4.0809C3.95964 0.910714 3.85849 0.873262 3.77745 0.798357C3.69642 0.723452 3.6559 0.629952 3.6559 0.517857C3.6559 0.405762 3.69642 0.312262 3.77745 0.237357C3.85849 0.162452 3.95964 0.125 4.0809 0.125H4.9139C5.30547 0.125 5.63215 0.246262 5.89395 0.488786C6.15575 0.731309 6.28694 1.03329 6.2875 1.39471V9.85607C6.2875 10.2175 6.1566 10.5195 5.8948 10.762C5.633 11.0045 5.30632 11.1255 4.91475 11.125ZM9.6875 11.125C9.2965 11.125 8.96982 11.004 8.70745 10.762C8.44508 10.52 8.31419 10.218 8.31475 9.85607V1.39393C8.31475 1.0325 8.44565 0.730785 8.70745 0.488786C8.96925 0.246786 9.29593 0.125524 9.6875 0.125H13.6273C14.0182 0.125 14.3447 0.246262 14.6065 0.488786C14.8682 0.731309 14.9994 1.03329 15 1.39471V9.85607C15 10.2175 14.8688 10.5195 14.6065 10.762C14.3441 11.0045 14.0177 11.1255 13.6273 11.125H9.6875ZM9.6875 10.3589H13.6273C13.7797 10.3589 13.9049 10.3136 14.003 10.223C14.101 10.1324 14.15 10.0166 14.15 9.87571V1.39471C14.15 1.25329 14.101 1.13726 14.003 1.04664C13.9049 0.956024 13.7797 0.910714 13.6273 0.910714H9.6875C9.5345 0.910714 9.40927 0.956024 9.3118 1.04664C9.21377 1.13726 9.16475 1.25329 9.16475 1.39471V9.87571C9.16475 10.0166 9.21377 10.1324 9.3118 10.223C9.40983 10.3136 9.53507 10.3589 9.6875 10.3589ZM2.2143 6.01786H-1.57499C-1.69569 6.01786 -1.79684 5.9804 -1.87844 5.9055C-1.96004 5.83059 -2.00056 5.73709 -1.99999 5.625C-1.99943 5.5129 -1.95891 5.4194 -1.87844 5.3445C-1.79798 5.26959 -1.69683 5.23214 -1.57499 5.23214H2.2143L0.849205 4.01586C0.766472 3.93938 0.723121 3.85112 0.719155 3.75107C0.715188 3.65102 0.754855 3.55752 0.838155 3.47057C0.920322 3.38362 1.01835 3.34276 1.13225 3.348C1.24672 3.35324 1.3507 3.39409 1.4442 3.47057L3.355 5.18107C3.42867 5.24917 3.4808 5.31909 3.5114 5.39086C3.542 5.46262 3.55702 5.54067 3.55645 5.625C3.55589 5.70933 3.54087 5.79 3.5114 5.867C3.48194 5.944 3.4298 6.01655 3.355 6.08464L1.4561 7.79357C1.36544 7.86743 1.26315 7.90514 1.14925 7.90671C1.03535 7.90828 0.937038 7.87083 0.854305 7.79436C0.760238 7.71055 0.713205 7.61521 0.713205 7.50836C0.713205 7.4015 0.758538 7.30983 0.849205 7.23336L2.2143 6.01786Z" fill="currentColor"/>
  <path d="M9.16475 10.3589V0.910714M4.91475 11.125H4.05965C3.94972 11.125 3.8548 11.0875 3.7749 11.0126C3.69557 10.9377 3.6559 10.8442 3.6559 10.7321C3.6559 10.6305 3.69925 10.543 3.78595 10.4697C3.87265 10.3964 3.97097 10.3595 4.0809 10.3589H4.9139C5.0669 10.3589 5.19242 10.3136 5.29045 10.223C5.38849 10.1324 5.4375 10.0166 5.4375 9.87571V1.39471C5.4375 1.25329 5.38849 1.13726 5.29045 1.04664C5.19242 0.956024 5.06719 0.910714 4.91475 0.910714H4.0809C3.95964 0.910714 3.85849 0.873262 3.77745 0.798357C3.69642 0.723452 3.6559 0.629952 3.6559 0.517857C3.6559 0.405762 3.69642 0.312262 3.77745 0.237357C3.85849 0.162452 3.95964 0.125 4.0809 0.125H4.9139C5.30547 0.125 5.63215 0.246262 5.89395 0.488786C6.15575 0.731309 6.28694 1.03329 6.2875 1.39471V9.85607C6.2875 10.2175 6.1566 10.5195 5.8948 10.762C5.633 11.0045 5.30632 11.1255 4.91475 11.125ZM9.6875 11.125C9.2965 11.125 8.96982 11.004 8.70745 10.762C8.44509 10.52 8.31419 10.218 8.31475 9.85607V1.39393C8.31475 1.0325 8.44565 0.730785 8.70745 0.488786C8.96925 0.246786 9.29593 0.125524 9.6875 0.125H13.6273C14.0183 0.125 14.3447 0.246262 14.6065 0.488786C14.8683 0.731309 14.9994 1.03329 15 1.39471V9.85607C15 10.2175 14.8688 10.5195 14.6065 10.762C14.3441 11.0045 14.0177 11.1255 13.6273 11.125H9.6875ZM9.6875 10.3589H13.6273C13.7797 10.3589 13.9049 10.3136 14.0029 10.223C14.101 10.1324 14.15 10.0166 14.15 9.87571V1.39471C14.15 1.25329 14.101 1.13726 14.0029 1.04664C13.9049 0.956024 13.7797 0.910714 13.6273 0.910714H9.6875C9.5345 0.910714 9.40927 0.956024 9.3118 1.04664C9.21377 1.13726 9.16475 1.25329 9.16475 1.39471V9.87571C9.16475 10.0166 9.21377 10.1324 9.3118 10.223C9.40983 10.3136 9.53507 10.3589 9.6875 10.3589ZM2.2143 6.01786H-1.57499C-1.69569 6.01786 -1.79684 5.9804 -1.87844 5.9055C-1.96004 5.83059 -2.00056 5.73709 -1.99999 5.625C-1.99943 5.5129 -1.95891 5.4194 -1.87844 5.3445C-1.79798 5.26959 -1.69683 5.23214 -1.57499 5.23214H2.2143L0.849205 4.01586C0.766472 3.93938 0.723121 3.85112 0.719155 3.75107C0.715188 3.65102 0.754855 3.55752 0.838155 3.47057C0.920322 3.38362 1.01835 3.34276 1.13225 3.348C1.24672 3.35324 1.3507 3.39409 1.4442 3.47057L3.355 5.18107C3.42867 5.24917 3.4808 5.31909 3.5114 5.39086C3.542 5.46262 3.55702 5.54067 3.55645 5.625C3.55589 5.70933 3.54087 5.79 3.5114 5.867C3.48194 5.944 3.4298 6.01655 3.355 6.08464L1.4561 7.79357C1.36544 7.86743 1.26315 7.90514 1.14925 7.90671C1.03535 7.90828 0.937038 7.87083 0.854305 7.79436C0.760238 7.71055 0.713205 7.61521 0.713205 7.50836C0.713205 7.4015 0.758538 7.30983 0.849205 7.23336L2.2143 6.01786Z" stroke="currentColor" stroke-width="0.25"/>
</svg>
