<svg width="14" height="12" viewBox="0 0 14 12" fill="none" xmlns="http://www.w3.org/2000/svg">
  <path d="M6.99996 1.8855L9.66663 4.55216M8.66663 10.2188H12.6666M0.666626 10.8857H3.33329L10.3333 3.8857C10.5084 3.7106 10.6473 3.50273 10.742 3.27396C10.8368 3.04519 10.8856 2.79999 10.8856 2.55237C10.8856 2.30474 10.8368 2.05955 10.742 1.83077C10.6473 1.602 10.5084 1.39413 10.3333 1.21903C10.1582 1.04394 9.95033 0.905044 9.72155 0.810282C9.49278 0.715521 9.24758 0.666748 8.99996 0.666748C8.75234 0.666748 8.50714 0.715521 8.27837 0.810282C8.04959 0.905044 7.84172 1.04394 7.66663 1.21903L0.666626 8.21903V10.8857Z" stroke="currentColor" stroke-width="1.33333" stroke-linecap="round" stroke-linejoin="round"/>
</svg>
