<svg width="10" height="8" viewBox="0 0 10 8" fill="none" xmlns="http://www.w3.org/2000/svg">
<path d="M9.20711 2.37385C9.59763 1.98333 9.59763 1.35017 9.20711 0.959641C8.81658 0.569117 8.18342 0.569117 7.79289 0.959641L9.20711 2.37385ZM3.83333 6.33342L3.12623 7.04052C3.31376 7.22806 3.56812 7.33342 3.83333 7.33342C4.09855 7.33342 4.3529 7.22806 4.54044 7.04052L3.83333 6.33342ZM2.20711 3.29297C1.81658 2.90245 1.18342 2.90245 0.792893 3.29297C0.402369 3.6835 0.402369 4.31666 0.792893 4.70719L2.20711 3.29297ZM7.79289 0.959641L3.12623 5.62631L4.54044 7.04052L9.20711 2.37385L7.79289 0.959641ZM4.54044 5.62631L2.20711 3.29297L0.792893 4.70719L3.12623 7.04052L4.54044 5.62631Z" fill="currentColor"/>
</svg>
