<svg width="14" height="16" viewBox="0 0 14 16" fill="none" xmlns="http://www.w3.org/2000/svg">
  <path d="M13.2376 6.77096L2.34332 0.383727C2.11486 0.250226 1.85353 0.177219 1.586 0.172157C1.31848 0.167095 1.05435 0.23016 0.820562 0.354914C0.586776 0.479667 0.391709 0.661643 0.255271 0.882268C0.118834 1.10289 0.0459107 1.35427 0.0439453 1.61073V14.3852C0.0459107 14.6417 0.118834 14.893 0.255271 15.1137C0.391709 15.3343 0.586776 15.5163 0.820562 15.641C1.05435 15.7658 1.31848 15.8288 1.586 15.8238C1.85353 15.8187 2.11486 15.7457 2.34332 15.6122L13.2376 9.22497C13.4573 9.09679 13.6388 8.9166 13.7648 8.7017C13.8908 8.48681 13.957 8.24446 13.957 7.99796C13.957 7.75146 13.8908 7.50911 13.7648 7.29422C13.6388 7.07933 13.4573 6.89913 13.2376 6.77096ZM1.85865 13.8576V2.13835L11.8516 7.99796L1.85865 13.8576Z" fill="#currentColor"/>
  <path d="M1.85865 13.8576V2.13835L11.8516 7.99796L1.85865 13.8576Z" fill="currentColor"/>
</svg>
