<svg width="25" height="25" viewBox="0 0 25 25" fill="none" xmlns="http://www.w3.org/2000/svg">
  <path d="M16.2002 12.5H20.2002M18.2002 14.5V10.5M4.2002 18.5V17.5C4.2002 16.7044 4.51627 15.9413 5.07888 15.3787C5.64148 14.8161 6.40455 14.5 7.2002 14.5H11.2002C11.9958 14.5 12.7589 14.8161 13.3215 15.3787C13.8841 15.9413 14.2002 16.7044 14.2002 17.5V18.5C14.2002 18.7652 14.0948 19.0196 13.9073 19.2071C13.7198 19.3946 13.4654 19.5 13.2002 19.5H5.2002C4.93498 19.5 4.68063 19.3946 4.49309 19.2071C4.30555 19.0196 4.2002 18.7652 4.2002 18.5ZM12.2002 8.5C12.2002 9.29565 11.8841 10.0587 11.3215 10.6213C10.7589 11.1839 9.99584 11.5 9.2002 11.5C8.40455 11.5 7.64148 11.1839 7.07888 10.6213C6.51627 10.0587 6.2002 9.29565 6.2002 8.5C6.2002 7.70435 6.51627 6.94129 7.07888 6.37868C7.64148 5.81607 8.40455 5.5 9.2002 5.5C9.99584 5.5 10.7589 5.81607 11.3215 6.37868C11.8841 6.94129 12.2002 7.70435 12.2002 8.5Z" stroke="currentColor" stroke-width="1.8" stroke-linecap="round" stroke-linejoin="round"/>
</svg>
