<svg width="20" height="20" viewBox="0 0 20 20" fill="none" xmlns="http://www.w3.org/2000/svg">
  <path d="M12.4995 6.66536H14.1662M12.4995 9.9987H14.1662M5.83285 13.332H14.1662M2.49951 5.83203C2.49951 5.16899 2.7629 4.53311 3.23174 4.06426C3.70059 3.59542 4.33647 3.33203 4.99951 3.33203H14.9995C15.6626 3.33203 16.2984 3.59542 16.7673 4.06426C17.2361 4.53311 17.4995 5.16899 17.4995 5.83203V14.1654C17.4995 14.8284 17.2361 15.4643 16.7673 15.9331C16.2984 16.402 15.6626 16.6654 14.9995 16.6654H4.99951C4.33647 16.6654 3.70059 16.402 3.23174 15.9331C2.7629 15.4643 2.49951 14.8284 2.49951 14.1654V5.83203ZM5.83285 8.33203C5.83285 8.77406 6.00844 9.19798 6.321 9.51054C6.63356 9.8231 7.05748 9.9987 7.49951 9.9987C7.94154 9.9987 8.36546 9.8231 8.67802 9.51054C8.99058 9.19798 9.16618 8.77406 9.16618 8.33203C9.16618 7.89 8.99058 7.46608 8.67802 7.15352C8.36546 6.84096 7.94154 6.66536 7.49951 6.66536C7.05748 6.66536 6.63356 6.84096 6.321 7.15352C6.00844 7.46608 5.83285 7.89 5.83285 8.33203Z" stroke="currentColor" stroke-width="1.6" stroke-linecap="round" stroke-linejoin="round"/>
</svg>
