<svg width="21" height="21" viewBox="0 0 21 21" fill="none" xmlns="http://www.w3.org/2000/svg">
  <path d="M17.0038 9.72676L8.62007 4.81147C8.44426 4.70873 8.24315 4.65255 8.03728 4.64865C7.83141 4.64476 7.62814 4.69329 7.44823 4.78929C7.26832 4.8853 7.11821 5.02534 7.01321 5.19512C6.90822 5.3649 6.8521 5.55835 6.85059 5.75571V15.5863C6.8521 15.7837 6.90822 15.9771 7.01321 16.1469C7.11821 16.3167 7.26832 16.4567 7.44823 16.5527C7.62814 16.6487 7.83141 16.6972 8.03728 16.6934C8.24315 16.6895 8.44426 16.6333 8.62007 16.5305L17.0038 11.6152C17.1728 11.5166 17.3125 11.3779 17.4095 11.2126C17.5064 11.0472 17.5574 10.8607 17.5574 10.671C17.5574 10.4813 17.5064 10.2948 17.4095 10.1294C17.3125 9.96407 17.1728 9.8254 17.0038 9.72676ZM8.24709 15.1803V6.16174L15.9372 10.671L8.24709 15.1803Z" fill="currentColor"/>
  <path d="M8.24709 15.1803V6.16174L15.9372 10.671L8.24709 15.1803Z" fill="currentColor"/>
  <rect x="3.10059" y="5.89844" width="1.25" height="10" rx="0.625" fill="currentColor"/>
</svg>
