<svg width="20" height="21" viewBox="0 0 20 21" fill="none" xmlns="http://www.w3.org/2000/svg">
<path d="M16.5969 14.7132L12.6818 12.1627C12.5997 12.1094 12.5058 12.0803 12.4096 12.0782C12.3135 12.0762 12.2186 12.1014 12.1346 12.1512C12.0505 12.201 11.9804 12.2737 11.9314 12.3618C11.8824 12.4499 11.8562 12.5503 11.8555 12.6527V17.7536C11.8562 17.856 11.8824 17.9564 11.9314 18.0445C11.9804 18.1326 12.0505 18.2052 12.1346 18.255C12.2186 18.3049 12.3135 18.33 12.4096 18.328C12.5058 18.326 12.5997 18.2968 12.6818 18.2435L16.5969 15.6931C16.6759 15.6419 16.7411 15.5699 16.7864 15.4841C16.8317 15.3983 16.8555 15.3016 16.8555 15.2031C16.8555 15.1047 16.8317 15.0079 16.7864 14.9221C16.7411 14.8363 16.6759 14.7644 16.5969 14.7132ZM12.5076 17.5429V12.8633L16.0988 15.2031L12.5076 17.5429Z" fill="currentColor"/>
<path d="M12.5076 17.5429V12.8633L16.0988 15.2031L12.5076 17.5429Z" fill="currentColor"/>
<path fill-rule="evenodd" clip-rule="evenodd" d="M4.52637 4.25098C4.6686 4.10876 4.8615 4.02886 5.06263 4.02886H5.82101V5.54562H4.30425V4.78724C4.30425 4.5861 4.38415 4.39321 4.52637 4.25098ZM5.06263 2.62891H6.52099H12.3544H13.8128C14.3852 2.62891 14.9342 2.8563 15.339 3.26107C15.7437 3.66583 15.9711 4.21481 15.9711 4.78724V6.2456V9.16232V12.079V12.6968L13.8038 11.3791H14.5712V9.86229H13.0544V10.9234L11.9268 10.2378C11.8421 10.1865 11.7501 10.1489 11.6544 10.126V9.86229H7.22097V12.079V14.2958H10.4808V15.6957H6.52099H5.06263C4.49021 15.6957 3.94122 15.4683 3.53646 15.0636C3.13169 14.6588 2.9043 14.1098 2.9043 13.5374V12.079V9.16232V6.2456V4.78724C2.9043 4.21481 3.13169 3.66583 3.53646 3.26107C3.94122 2.8563 4.49021 2.62891 5.06263 2.62891ZM7.22097 6.2456V4.02886H11.6544V6.2456V8.46234H7.22097V6.2456ZM14.5712 4.78724V5.54562H13.0544V4.02886H13.8128C14.0139 4.02886 14.2068 4.10876 14.349 4.25098C14.4913 4.39321 14.5712 4.58611 14.5712 4.78724ZM13.0544 8.46234V6.94558H14.5712V8.46234H13.0544ZM4.30425 13.5374V12.779H5.82101V14.2958H5.06263C4.8615 14.2958 4.6686 14.2159 4.52637 14.0737C4.38415 13.9314 4.30425 13.7385 4.30425 13.5374ZM5.82101 9.86229V11.3791H4.30425V9.86229H5.82101ZM5.82101 8.46234H4.30425V6.94558H5.82101V8.46234Z" fill="currentColor"/>
</svg>
