<svg width="24" height="24" viewBox="0 0 24 24" fill="none" xmlns="http://www.w3.org/2000/svg">
  <path d="M7.4472 7.20611C7.4472 7.45401 7.54568 7.69175 7.72097 7.86704C7.89626 8.04233 8.134 8.14081 8.38189 8.14081C8.62979 8.14081 8.86753 8.04233 9.04282 7.86704C9.21811 7.69175 9.31659 7.45401 9.31659 7.20611C9.31659 6.95822 9.21811 6.72048 9.04282 6.54519C8.86753 6.3699 8.62979 6.27142 8.38189 6.27142C8.134 6.27142 7.89626 6.3699 7.72097 6.54519C7.54568 6.72048 7.4472 6.95822 7.4472 7.20611Z" stroke="currentColor" stroke-width="1.70683" stroke-linecap="round" stroke-linejoin="round"/>
  <path d="M4.17578 5.80408V10.6383C4.17589 11.1341 4.37291 11.6095 4.72351 11.96L11.93 19.1664C12.3524 19.5888 12.9253 19.8261 13.5227 19.8261C14.1201 19.8261 14.693 19.5888 15.1154 19.1664L20.3422 13.9396C20.7646 13.5172 21.0019 12.9443 21.0019 12.3469C21.0019 11.7495 20.7646 11.1766 20.3422 10.7542L13.1357 3.54773C12.7852 3.19713 12.3098 3.00011 11.8141 3H6.97986C6.23617 3 5.52294 3.29543 4.99708 3.82129C4.47121 4.34716 4.17578 5.06039 4.17578 5.80408Z" stroke="currentColor" stroke-width="1.70683" stroke-linecap="round" stroke-linejoin="round"/>
</svg>
